<svg width="40" height="40" viewBox="0 0 40 40" fill="none" xmlns="http://www.w3.org/2000/svg">
<g clip-path="url(#clip0_351_927)">
<path d="M8.35599 16.6738C8.2855 16.664 8.25886 16.6572 8.23221 16.658C7.54626 16.6791 6.85859 16.6882 6.17436 16.7275C5.35431 16.7744 4.54029 16.7011 3.72454 16.6701C3.36265 16.6565 2.99991 16.6005 2.64318 16.5408C2.03287 16.438 1.53947 16.153 1.1432 15.7365C0.666129 15.2339 0.375589 14.6503 0.206251 14.0199C-0.0636596 13.01 -0.0696767 11.9963 0.194216 10.9834C0.229459 10.8489 0.280175 10.7158 0.336908 10.5866C0.367853 10.5148 0.379027 10.4535 0.348942 10.3787C0.183901 9.9622 0.107398 9.53738 0.178744 9.09518C0.200233 8.96441 0.188199 8.82986 0.191638 8.69682C0.199374 8.39144 0.262983 8.08983 0.3945 7.81317C0.611116 7.3551 0.963546 6.98622 1.49219 6.77683C1.6452 6.71636 1.74233 6.62717 1.83001 6.50395C2.05436 6.19026 2.37929 5.98238 2.78845 5.88865C2.99561 5.84103 3.18386 5.78207 3.35578 5.65432C3.71938 5.38447 4.14574 5.30736 4.61335 5.40412C4.70876 5.42377 4.81621 5.41395 4.91592 5.40336C5.05862 5.38825 5.19959 5.3565 5.34228 5.33911C5.91648 5.27032 6.42966 5.43133 6.91017 5.6838C7.33222 5.90528 7.69497 6.19403 8.01215 6.52134C8.23479 6.75038 8.44711 6.98924 8.63879 7.23869C8.87862 7.55012 8.9259 7.91371 8.93019 8.27957C8.93105 8.36801 8.90612 8.46174 8.8683 8.54413C8.76 8.77846 8.67919 9.02564 8.48837 9.22369C8.41874 9.29625 8.43163 9.37865 8.43421 9.46406C8.44625 9.83143 8.39553 10.1905 8.16602 10.5087C8.0749 10.635 7.95198 10.743 7.8411 10.8579C7.80242 10.898 7.75686 10.932 7.70528 10.9781C7.79124 11.0326 7.86517 11.0061 7.93479 10.9955C8.2941 10.9418 8.65169 10.8844 9.01099 10.8315C9.1322 10.8133 9.25598 10.8035 9.3789 10.796C9.55683 10.7839 9.56973 10.7771 9.61013 10.6213C9.7554 10.068 9.89637 9.51395 10.0459 8.96139C10.4749 7.38004 10.9365 5.80626 11.5167 4.26195C11.8227 3.44709 12.1425 2.63677 12.5637 1.86046C12.6135 1.76748 12.6127 1.70096 12.5344 1.61479C12.4657 1.53844 12.4081 1.43715 12.3943 1.34191C12.3118 0.771958 12.6101 0.296497 13.2436 0.136246C13.4989 0.0719942 13.7679 0.0364668 14.0327 0.0190811C14.8313 -0.0338319 15.6255 0.0281519 16.4172 0.114325C17.7882 0.263993 19.1447 0.489251 20.4968 0.738699C22.9406 1.18997 25.3363 1.79545 27.7113 2.4682C29.1262 2.86883 30.5041 3.35034 31.8519 3.89988C32.464 4.14932 33.0579 4.42825 33.6003 4.78352C33.786 4.90522 33.9639 5.04431 34.1109 5.20078C34.2261 5.32324 34.3052 5.4782 34.3679 5.62938C34.4565 5.84481 34.2983 6.32859 34.1109 6.48959C34.0817 6.51454 34.0533 6.54402 34.0189 6.5614C33.7808 6.68461 33.6596 6.88871 33.5436 7.09507C33.2178 7.67711 32.9771 8.28864 32.7476 8.90243C32.2078 10.3439 31.7642 11.8089 31.3431 13.2798C31.3362 13.3033 31.3284 13.3267 31.3224 13.3501C31.2769 13.5263 31.2855 13.5467 31.4729 13.6087C33.0743 14.1378 34.5313 14.8952 35.9023 15.7872C35.996 15.8476 36.0777 15.9217 36.1662 15.9882C36.2075 16.0192 36.2487 16.054 36.2977 16.0737C36.6914 16.2316 36.9785 16.497 37.2381 16.7903C37.6859 17.296 37.9945 17.8689 38.2653 18.4585C38.653 19.3036 38.916 20.1774 39.0071 21.0875C39.0458 21.4678 39.0527 21.8487 38.9762 22.2259C38.9547 22.3325 38.9796 22.4126 39.0561 22.492C39.4455 22.8964 39.6767 23.3764 39.853 23.873C39.9415 24.1232 39.9664 24.3954 39.9871 24.6592C40.0532 25.5186 39.8676 26.3418 39.4971 27.1363C39.4025 27.3396 39.2736 27.5225 39.0905 27.676C38.8816 27.8506 38.6349 27.9519 38.3478 27.9443C38.1596 27.939 38.0324 27.998 37.9387 28.1348C37.8854 28.2119 37.8106 28.2792 37.7659 28.3593C37.5802 28.6964 37.2424 28.8038 36.8547 28.8295C36.7052 28.8393 36.5521 28.8325 36.4026 28.8151C36.2943 28.8023 36.2195 28.8242 36.1481 28.8945C36.0708 28.9708 35.9848 29.0411 35.898 29.1099C35.6006 29.3458 35.2525 29.4236 34.8648 29.342C34.7247 29.3125 34.6181 29.3329 34.5046 29.4123C33.6562 30.0034 32.6316 29.568 32.3144 28.8643C32.1356 28.4674 32.0797 28.0471 32.1485 27.6185C32.2035 27.2776 32.2834 27.3026 31.8846 27.0244C31.3809 26.6737 31.221 26.2133 31.3018 25.6713C31.319 25.5579 31.3499 25.4453 31.3645 25.3312C31.4324 24.8104 31.7049 24.3644 32.0367 23.9449C32.2207 23.712 32.4296 23.4951 32.635 23.2766C32.6935 23.2139 32.69 23.1617 32.6642 23.0945C32.445 22.5283 32.2233 21.9629 32.0101 21.3952C31.8846 21.0626 31.772 20.7262 31.6559 20.3914C31.6241 20.3007 31.5846 20.2319 31.4634 20.2031C30.9863 20.0882 30.5127 19.9628 30.0373 19.8426C29.9729 19.8267 29.9075 19.8161 29.819 19.798C29.7949 19.8804 29.7691 19.9469 29.7563 20.0157C29.5173 21.2795 29.305 22.5464 29.1906 23.8247C29.164 24.1195 29.1683 24.4165 29.1545 24.7121C29.1494 24.8149 29.1889 24.8799 29.3041 24.9215C29.7356 25.0749 29.8895 25.4007 29.9282 25.7711C29.9677 26.1491 29.7081 26.3993 29.3703 26.5769C28.8571 26.8468 28.3216 27.0803 27.762 27.2693C27.5248 27.3494 27.2841 27.4212 27.0451 27.4976C26.887 27.5482 26.8775 27.5686 26.9102 27.7115C26.9643 27.9473 27.1156 28.1454 27.2325 28.3555C27.8127 29.3934 28.5399 30.339 29.4846 31.1524C30.0047 31.6006 30.5024 32.07 31.0878 32.4548C31.3173 32.606 31.5683 32.7345 31.8158 32.863C32.0763 32.9975 32.3505 33.1117 32.6084 33.2485C32.8912 33.3981 33.0914 33.6098 33.2359 33.8774C33.5255 34.4141 33.651 34.978 33.6235 35.5653C33.602 36.0249 33.5221 36.4769 33.3046 36.9048C33.0536 37.3984 32.7588 37.861 32.3617 38.2805C32.0333 38.6275 31.6886 38.9487 31.2614 39.1989C30.6829 39.5376 30.0365 39.7092 29.36 39.8112C29.0823 39.8528 28.8047 39.8928 28.5262 39.9337C27.3829 40.1 26.2947 39.9458 25.2632 39.4907C25.0371 39.3909 24.8308 39.2564 24.6219 39.1294C24.4775 39.0417 24.3787 38.9177 24.3185 38.7719C24.3022 38.7318 24.2893 38.691 24.2695 38.6524C24.0598 38.2435 24.1432 37.8474 24.352 37.4634C24.5162 37.161 24.8274 37.0045 25.16 36.8783C25.2417 36.8473 25.3302 36.8299 25.4145 36.805C25.4781 36.7861 25.5245 36.7528 25.5194 36.6871C25.4875 36.2985 25.6208 35.9486 25.8408 35.6182C25.8503 35.6039 25.8494 35.5842 25.8572 35.554C25.8185 35.5351 25.7815 35.5101 25.7394 35.4973C25.3388 35.3786 24.9727 35.2017 24.6288 34.9878C23.5002 34.2871 22.5056 33.4548 21.5704 32.5667C20.6962 31.7359 19.8822 30.8636 19.198 29.9014C18.9831 29.5982 18.7819 29.2898 18.647 28.9504C18.6229 28.89 18.5876 28.8325 18.5421 28.7448C18.475 28.8061 18.4252 28.8438 18.3865 28.8884C18.0169 29.317 17.6507 29.7471 17.2811 30.1757C16.9656 30.5408 16.6519 30.9082 16.3269 31.2673C15.5946 32.0753 14.8734 32.8917 14.1161 33.6809C13.1319 34.7059 12.0952 35.6908 10.9812 36.6092C10.0984 37.3379 9.1726 38.022 8.18321 38.6365C7.68895 38.9434 7.16804 39.2171 6.60673 39.4204C6.3033 39.5308 5.98869 39.623 5.67064 39.6948C5.1781 39.8067 4.70533 39.747 4.26092 39.5157C3.81136 39.2821 3.43142 38.979 3.1022 38.6267C2.35436 37.827 1.84806 36.9123 1.47414 35.9372C0.958389 34.594 0.730598 33.2137 0.819136 31.7971C0.857817 31.1743 0.951512 30.5552 1.22658 29.9739C1.34692 29.7184 1.48617 29.4644 1.66239 29.2369C2.33803 28.3623 3.50964 28.2134 4.43628 28.8884C5.06979 29.3503 5.61047 29.8885 6.00244 30.5318C6.09012 30.6754 6.17092 30.822 6.25774 30.9664C6.28868 31.0171 6.32737 31.0647 6.38066 31.1395C7.79898 29.8114 9.24222 28.5415 10.5832 27.1438C10.4852 27.1023 10.4207 27.0743 10.3554 27.0478C9.78032 26.818 9.19667 26.6034 8.63192 26.3547C8.04654 26.0969 7.53422 25.7401 7.02191 25.3811C6.59642 25.0825 6.63768 24.2827 7.14827 24.0031C7.2222 23.9622 7.30987 23.9365 7.39583 23.9192C7.48695 23.901 7.52219 23.8564 7.52305 23.7801C7.52305 23.7619 7.52305 23.7438 7.52477 23.7256C7.57377 23.0446 7.60815 22.362 7.67606 21.6824C7.7474 20.9727 7.84797 20.2651 7.94511 19.5568C8.05685 18.7412 8.17806 17.9264 8.29496 17.1108C8.31559 16.9694 8.33622 16.828 8.35857 16.6723L8.35599 16.6738ZM29.3488 19.6657C29.3299 19.6559 29.3033 19.6362 29.2714 19.6271C28.7832 19.4813 28.2967 19.3339 27.8059 19.1963C27.7371 19.1774 27.6451 19.1986 27.572 19.2212C27.3975 19.2764 27.2316 19.352 27.0572 19.4049C25.9603 19.7352 24.8154 19.4843 24.0718 18.6966C23.5268 18.1199 23.2844 17.4441 23.238 16.7086C23.1615 15.5007 23.5535 14.4016 24.2996 13.3993C24.8231 12.6963 25.5219 12.1596 26.4125 11.8353C26.9308 11.6463 27.4715 11.5692 28.0268 11.669C28.95 11.8353 29.5947 12.307 29.9557 13.0727C29.9935 13.1529 30.0442 13.2027 30.1388 13.2254C30.3115 13.2662 30.4809 13.3154 30.6537 13.357C30.7946 13.391 30.8196 13.3789 30.8582 13.2526C30.9158 13.0659 30.9657 12.8777 31.019 12.6902C31.57 10.774 32.1511 8.86614 33.0416 7.04367C33.0588 7.0089 33.0579 6.96732 33.0682 6.91441C32.9754 6.91441 32.9006 6.90912 32.8276 6.91516C32.1674 6.97261 31.509 6.93482 30.8522 6.87964C29.7709 6.78893 28.7007 6.62943 27.6314 6.46692C25.6449 6.16531 23.6884 5.7541 21.7638 5.22951C19.8934 4.72003 18.0341 4.1788 16.2298 3.50605C15.1416 3.10013 14.0679 2.66473 13.1035 2.05094C13.0725 2.03129 13.0313 2.02373 12.9771 2.00483C12.9367 2.07438 12.8963 2.13636 12.8628 2.19986C12.4253 3.02908 12.0797 3.88929 11.7651 4.75858C11.2081 6.29608 10.7242 7.85173 10.3141 9.42475C9.89981 11.0152 9.52675 12.6124 9.19495 14.2172C9.03936 14.9716 8.89065 15.7275 8.75312 16.4849C8.59753 17.3375 8.43765 18.1902 8.31731 19.0474C8.18923 19.9582 8.09382 20.8729 8.00614 21.7875C7.92276 22.6538 7.87032 23.5231 7.8007 24.3901C7.7921 24.4936 7.81961 24.576 7.89353 24.6569C8.08866 24.8708 8.31731 25.0522 8.56659 25.2148C9.04968 25.5292 9.57488 25.7779 10.1259 25.9865C11.3431 26.4484 12.6127 26.756 13.9106 26.9775C15.2473 27.2051 16.596 27.3487 17.955 27.4288C19.9363 27.5452 21.9099 27.518 23.875 27.2497C24.8884 27.1113 25.8864 26.9133 26.8509 26.6003C27.4775 26.397 28.0826 26.1544 28.6422 25.8286C28.7557 25.7628 28.7884 25.6917 28.7686 25.5723C28.7325 25.3455 28.6964 25.1157 28.705 24.8882C28.7256 24.3273 28.7514 23.7649 28.8116 23.2063C28.8838 22.5268 28.9861 21.8503 29.0884 21.1737C29.1631 20.6778 29.2603 20.1842 29.3514 19.6642L29.3488 19.6657ZM7.18953 33.2273C7.16632 33.2349 7.14225 33.2424 7.11904 33.25C7.0795 33.191 7.03223 33.1359 7.003 33.0739C6.76404 32.5727 6.52851 32.07 6.29212 31.5681C5.97923 30.9037 5.53569 30.3088 5.02853 29.7494C4.63054 29.3102 4.11135 29.0268 3.49847 28.8756C3.09274 28.7758 2.72312 28.8469 2.3896 29.0683C2.14462 29.2309 1.95723 29.4372 1.80508 29.6708C1.57729 30.0215 1.44663 30.4025 1.35122 30.7933C1.17243 31.5258 1.14492 32.2643 1.21626 33.0104C1.34864 34.4035 1.73803 35.7354 2.4214 36.9985C2.76266 37.6289 3.183 38.2155 3.75033 38.7121C4.03055 38.9578 4.3486 39.1536 4.71822 39.2851C4.99329 39.3826 5.27093 39.4166 5.56491 39.3667C6.09786 39.2768 6.58782 39.0893 7.05458 38.8535C7.79468 38.4793 8.48923 38.0469 9.14853 37.57C10.2264 36.7891 11.2236 35.9304 12.1751 35.0347C12.9952 34.2629 13.7688 33.4526 14.5613 32.6581C14.7315 32.4873 14.7272 32.4661 14.6043 32.2567C14.147 31.4751 13.5445 30.7933 12.8147 30.1924C12.0221 29.54 11.1049 29.0835 10.0734 28.8C9.90496 28.7539 9.72445 28.741 9.54824 28.7146C9.36257 28.6866 9.23019 28.7486 9.10039 28.8726C8.26831 29.6685 7.4285 30.4577 6.58782 31.2469C6.50616 31.3232 6.49155 31.389 6.53281 31.4887C6.74426 32.0058 6.94713 32.5251 7.14999 33.0444C7.1732 33.1026 7.17578 33.1676 7.18781 33.2296L7.18953 33.2273ZM37.9902 22.5336C38.0005 22.5389 38.0109 22.5434 38.0212 22.5487C37.9223 22.6281 37.8355 22.7271 37.7212 22.7823C37.3971 22.9395 37.0713 23.1013 36.7284 23.2199C36.1327 23.4263 35.5112 23.5548 34.8777 23.644C34.2828 23.7279 33.6914 23.7649 33.0975 23.6501C32.9892 23.6289 32.9135 23.6569 32.8473 23.7324C32.5551 24.0688 32.2654 24.4075 32.0703 24.7983C31.8743 25.1913 31.7969 25.6071 31.8046 26.0342C31.8089 26.2768 31.9353 26.4749 32.1416 26.6336C32.2241 26.6971 32.3058 26.7629 32.3935 26.8203C32.6763 27.0063 32.7511 27.2534 32.6685 27.5445C32.592 27.8143 32.6066 28.0842 32.6651 28.3533C32.6917 28.4772 32.7201 28.6042 32.7725 28.7206C32.9513 29.1145 33.4147 29.3367 33.8634 29.2558C34.0602 29.2203 34.2149 29.119 34.3525 28.9996C34.4977 28.8733 34.6396 28.8446 34.8338 28.9232C35.1132 29.0358 35.384 29.0056 35.6126 28.8091C35.7012 28.7327 35.7983 28.6617 35.8679 28.5732C35.9969 28.4107 36.1602 28.385 36.3716 28.4092C36.5805 28.4334 36.7945 28.4236 37.006 28.4168C37.1607 28.4122 37.2708 28.3374 37.3498 28.2164C37.4349 28.0857 37.5398 27.9647 37.6309 27.837C37.7796 27.6284 37.9963 27.5316 38.2705 27.5324C38.6255 27.5339 38.8756 27.3804 39.0329 27.1159C39.1464 26.9239 39.2427 26.7213 39.3166 26.5149C39.5504 25.8648 39.5779 25.1974 39.5022 24.5239C39.467 24.2094 39.3905 23.9048 39.2392 23.6153C39.0235 23.2041 38.818 22.7891 38.6023 22.3786C38.5541 22.2864 38.5395 22.1995 38.5472 22.0997C38.5679 21.8291 38.5928 21.557 38.5859 21.2856C38.573 20.795 38.4879 20.312 38.3633 19.8335C38.1278 18.9347 37.7384 18.0957 37.1306 17.339C36.9037 17.0563 36.6415 16.8023 36.339 16.5794C36.2341 16.5023 36.1163 16.4622 35.9788 16.4675C35.4588 16.4879 34.9516 16.5627 34.4891 16.7835C34.2124 16.9157 33.945 17.0669 33.6871 17.2264C33.5376 17.3186 33.4009 17.4343 33.2831 17.5582C32.6789 18.197 32.3152 18.9317 32.2095 19.7579C32.1545 20.1865 32.1829 20.6098 32.3204 21.0316C32.5379 21.6991 32.727 22.3741 32.9204 23.0468C32.9496 23.1481 33.0046 23.2109 33.1155 23.232C33.3897 23.2857 33.6631 23.3613 33.9407 23.3817C35.0023 23.4588 36.0192 23.2676 37.0026 22.9297C37.3395 22.814 37.661 22.6644 37.9894 22.5306L37.9902 22.5336ZM29.0385 37.0386C29.0385 37.0567 29.0368 37.0748 29.0368 37.093C28.9603 37.1005 28.8838 37.1164 28.8081 37.1134C28.6027 37.1051 28.3972 37.0839 28.1918 37.0779C27.6511 37.062 27.1122 36.9811 26.568 37.0575C26.1615 37.1149 25.748 37.1383 25.362 37.2782C25.0449 37.3931 24.8007 37.5579 24.6959 37.8716C24.6159 38.1097 24.6598 38.3221 24.7406 38.5436C24.7887 38.6758 24.8738 38.7771 25.0019 38.8588C25.9431 39.459 26.9978 39.6789 28.1402 39.5557C28.6706 39.4983 29.1967 39.3992 29.7193 39.298C30.3623 39.1732 30.9373 38.9185 31.4135 38.5148C31.6396 38.3228 31.8416 38.1074 32.041 37.8927C32.5628 37.3326 32.9281 36.7082 33.0717 35.9856C33.1731 35.4739 33.1516 34.9742 32.9763 34.4814C32.8362 34.089 32.6118 33.7489 32.2044 33.5078C31.6585 33.1842 31.1307 32.8365 30.6004 32.4926C29.9617 32.0783 29.4279 31.5628 28.8649 31.0768C28.6104 30.8576 28.3697 30.6225 28.1531 30.3738C27.8523 30.0299 27.5798 29.6663 27.2935 29.3117C27.2523 29.2611 27.2059 29.2135 27.1474 29.1492C27.0993 29.2127 27.0666 29.2505 27.0408 29.2913C26.9059 29.5113 26.7322 29.7048 26.5294 29.8794C26.2483 30.1213 25.938 30.3299 25.6088 30.5174C25.0165 30.8561 24.3735 31.1017 23.7013 31.2794C22.9286 31.4835 22.1395 31.6097 21.3246 31.5364C21.2678 31.5311 21.2102 31.5401 21.1071 31.5439C21.1784 31.6271 21.218 31.68 21.2661 31.7276C21.5498 32.0073 21.8291 32.29 22.1214 32.5621C23.1082 33.4821 24.1457 34.3529 25.3311 35.077C25.4944 35.1768 25.6706 35.2599 25.8391 35.3529C25.9534 35.4156 26.0428 35.4005 26.1554 35.3295C26.2973 35.2395 26.4606 35.1685 26.6248 35.1125C26.7425 35.0725 26.8766 35.074 27.0159 35.1715C26.948 35.2206 26.9024 35.263 26.8474 35.2909C26.3463 35.5464 26.1305 35.9591 26.0437 36.4361C25.9981 36.6841 26.0317 36.709 26.3239 36.6833C27.2162 36.6039 28.074 36.7453 28.9182 36.9841C28.9611 36.9962 28.9998 37.0197 29.0402 37.0378L29.0385 37.0386ZM35.5937 16.1243C35.5739 16.088 35.5688 16.0684 35.5559 16.057C35.5155 16.0245 35.4734 15.9935 35.4295 15.9648C33.7413 14.8816 31.8966 14.0819 29.8732 13.6102C29.0462 13.4174 28.2064 13.3169 27.3451 13.3464C26.8139 13.3645 26.3489 13.5081 25.9363 13.7908C25.0234 14.416 24.5119 15.2066 24.5867 16.2581C24.6512 17.1622 25.4549 18.0692 26.3446 18.3164C27.0391 18.5092 27.7276 18.7178 28.4162 18.9257C29.4881 19.2484 30.5737 19.5387 31.6121 19.9431C31.631 19.9507 31.6499 19.9582 31.6697 19.9635C31.7419 19.9824 31.7918 19.9635 31.8064 19.8955C31.8141 19.86 31.8158 19.8237 31.8193 19.7874C31.8502 19.4397 31.9663 19.1139 32.1373 18.7994C32.5611 18.0216 33.2599 17.4456 33.9803 16.8946C34.4109 16.565 34.9181 16.3261 35.4691 16.1719C35.5069 16.1613 35.5421 16.144 35.5946 16.1235L35.5937 16.1243ZM0.724581 10.7582C0.697074 10.8186 0.673866 10.8549 0.662691 10.8935C0.365274 11.951 0.337767 13.0085 0.662691 14.0652C0.83117 14.6125 1.06928 15.1333 1.49305 15.5695C1.86869 15.9565 2.32599 16.2279 2.92598 16.2755C3.3979 16.3133 3.86809 16.3647 4.33828 16.4153C4.9314 16.4796 5.52365 16.531 6.1245 16.4947C6.82335 16.4524 7.52391 16.4304 8.21158 16.2951C8.43163 16.2521 8.43593 16.2422 8.47203 16.0495C8.63278 15.1915 8.7875 14.3321 8.96114 13.4764C9.09867 12.7983 9.26113 12.1248 9.41156 11.4491C9.42961 11.3689 9.43735 11.2873 9.45196 11.1905C9.34451 11.1905 9.26457 11.1845 9.18549 11.1913C8.71358 11.2306 8.24338 11.2873 7.77061 11.3107C7.35199 11.3311 6.95916 11.4218 6.57235 11.5534C6.48553 11.5829 6.43739 11.6305 6.42622 11.7106C6.41418 11.7945 6.40129 11.8784 6.3841 11.9616C6.32135 12.2586 6.25172 12.5534 6.10215 12.8293C5.64142 13.6775 4.99845 14.3978 4.15777 14.9799C3.95405 15.1212 3.7297 15.2195 3.47698 15.2671C3.44517 15.2732 3.40907 15.2596 3.33772 15.2497C3.41509 15.2029 3.45635 15.1696 3.50448 15.1507C3.72282 15.0668 3.89989 14.9353 4.07353 14.7969C4.68642 14.3094 5.18068 13.7455 5.55374 13.0947C5.78755 12.6872 5.89757 12.2571 5.95516 11.8104C5.95688 11.7983 5.95688 11.7862 5.95774 11.7741C5.96118 11.6229 5.9311 11.5987 5.76949 11.6244C5.71534 11.6327 5.66376 11.6494 5.61047 11.6607C5.47723 11.6894 5.34572 11.7295 5.2099 11.7446C4.33141 11.8414 3.45979 11.8399 2.59934 11.6154C1.95895 11.4483 1.36325 11.214 0.853519 10.827C0.823434 10.8043 0.786471 10.7892 0.72716 10.7567L0.724581 10.7582ZM2.85378 7.94092C2.95521 7.85702 3.05664 7.87138 3.14002 7.90464C3.27583 7.95906 3.41423 8.02105 3.52511 8.10571C3.685 8.22741 3.82769 8.36876 3.96866 8.50936C4.2506 8.7898 4.35547 9.11408 4.26436 9.48447C4.21966 9.66664 4.27811 9.72863 4.49387 9.72636C4.74831 9.72334 4.9675 9.63036 5.1291 9.46482C5.54858 9.03471 5.57007 8.51163 5.26921 8.06867C5.14457 7.88574 4.98727 7.72549 4.78527 7.60455C4.59272 7.48889 4.39416 7.38004 4.20075 7.2659C4.14144 7.23113 4.03829 7.20845 4.07525 7.12455C4.11135 7.04216 4.21278 7.05501 4.29272 7.07012C4.37954 7.086 4.46636 7.10943 4.54716 7.14193C4.6718 7.19182 4.79902 7.24171 4.91249 7.30899C5.62938 7.73229 5.99728 8.30224 5.86405 9.08006C5.85545 9.13147 5.85287 9.18438 5.846 9.25392C6.08754 9.28265 6.3033 9.29096 6.47435 9.13147C6.8285 8.80265 6.95314 8.40807 6.81303 7.97645C6.68152 7.57204 6.46834 7.19938 6.06175 6.94162C5.88898 6.83202 5.71964 6.71863 5.54944 6.606C5.49786 6.57123 5.44801 6.53419 5.39214 6.49564C5.48411 6.39662 5.57781 6.43365 5.65087 6.46465C5.85459 6.55082 6.05574 6.64304 6.25086 6.74357C6.78896 7.01948 7.06833 7.46848 7.2497 7.9636C7.36489 8.2773 7.36403 8.60763 7.20758 8.92208C7.17836 8.97953 7.15773 9.03547 7.24368 9.07628C7.47663 9.18665 7.89783 9.13902 8.07233 8.9697C8.27519 8.77317 8.411 8.53355 8.46086 8.27957C8.52103 7.97418 8.47891 7.66351 8.29066 7.38533C7.98207 6.93028 7.60557 6.52285 7.1371 6.18874C6.501 5.7352 5.78755 5.58629 4.99501 5.80928C4.85747 5.84783 4.72682 5.85464 4.59272 5.80853C4.18957 5.66944 3.84918 5.77678 3.55778 6.02774C3.43228 6.13507 3.30248 6.19101 3.12627 6.20689C2.69733 6.24468 2.37241 6.43517 2.20393 6.78817C2.12571 6.95145 2.00794 7.03384 1.82313 7.08297C1.28159 7.22811 0.979019 7.59018 0.798506 8.03087C0.694496 8.2841 0.64292 8.55622 0.653235 8.83213C0.656674 8.93417 0.64292 9.03773 0.62401 9.13827C0.550085 9.52378 0.569856 9.90853 0.617992 10.2933C0.62315 10.3349 0.629167 10.3817 0.654095 10.4142C0.818276 10.6266 1.0091 10.8239 1.28073 10.923C1.60308 11.0409 1.94004 11.127 2.27184 11.2238C2.32943 11.2404 2.39304 11.2533 2.45321 11.251C2.66381 11.2419 2.85979 11.2918 3.05836 11.3455C3.17526 11.3772 3.29904 11.3969 3.42024 11.4029C3.75033 11.4188 4.05892 11.3364 4.35547 11.217C4.4612 11.1747 4.56263 11.1218 4.66922 11.0802C4.71134 11.0643 4.76292 11.0673 4.83942 11.059C4.76894 11.245 4.63398 11.3379 4.49559 11.4241C4.3529 11.5133 4.20075 11.5889 4.0443 11.6751C4.32023 11.7892 5.24343 11.6955 5.4334 11.5375C5.38612 11.5027 5.33454 11.4717 5.295 11.4324C5.24601 11.3833 5.19615 11.3304 5.16778 11.2714C5.14973 11.2329 5.14973 11.1565 5.17638 11.1399C5.21678 11.1149 5.28641 11.124 5.344 11.1263C5.36893 11.127 5.39471 11.1437 5.41792 11.1565C5.53913 11.2246 5.67236 11.2374 5.81247 11.2389C6.42278 11.2457 6.95572 11.0726 7.4285 10.7355C7.60901 10.607 7.76717 10.4641 7.84625 10.2736C7.93307 10.0642 7.99324 9.8473 8.06201 9.63187C8.06975 9.60693 8.05342 9.57669 8.04912 9.55023C8.01645 9.54494 7.99582 9.53663 7.97777 9.53965C7.6305 9.59786 7.29354 9.58803 6.97893 9.42702C6.90243 9.38772 6.84913 9.424 6.801 9.47238C6.69699 9.57669 6.55688 9.62507 6.41075 9.66362C6.19585 9.72107 5.97493 9.74223 5.7609 9.68176C5.58468 9.63187 5.50388 9.72183 5.56749 9.88056C5.57867 9.90853 5.58984 9.93952 5.61133 9.9622C5.82881 10.1867 6.07379 10.3734 6.42278 10.421C6.60243 10.446 6.75974 10.3953 6.91962 10.3341C7.00042 10.3031 7.08208 10.2419 7.21274 10.3031C6.9944 10.5117 6.78123 10.6894 6.4606 10.7241C5.91304 10.7839 5.50216 10.5767 5.18068 10.2064C5.06291 10.0703 5.06893 10.0673 4.88068 10.1179C4.62367 10.1875 4.36665 10.2011 4.11737 10.0968C4.02281 10.0567 3.95749 10.0763 3.87325 10.124C3.76666 10.1852 3.64632 10.2419 3.52254 10.2646C3.26982 10.3099 3.01882 10.2812 2.77384 10.2003C2.10852 9.97959 1.7174 9.54948 1.53689 8.95761C1.51196 8.87597 1.49563 8.79207 1.58073 8.69607C1.63746 8.74218 1.69849 8.77846 1.73889 8.82835C1.7982 8.90167 1.84892 8.9818 1.89362 9.06344C2.14978 9.52453 2.61395 9.72863 3.14604 9.83597C3.45205 9.89719 3.65061 9.78834 3.76494 9.53436C3.89388 9.25014 3.87411 8.97877 3.67038 8.72479C3.44087 8.43906 3.19417 8.16542 2.8555 7.94243L2.85378 7.94092ZM31.4625 6.66647C31.9284 6.64455 32.396 6.63472 32.8594 6.59466C33.088 6.57501 33.3149 6.50925 33.5341 6.44424C33.6846 6.39964 33.8083 6.30515 33.8857 6.17665C34.0611 5.88487 33.9828 5.45779 33.7104 5.22648C33.4422 4.9982 33.137 4.81074 32.8095 4.65578C32.2714 4.40104 31.7385 4.13194 31.1789 3.91953C30.2393 3.5635 29.2861 3.23317 28.3285 2.9172C26.7193 2.38656 25.0715 1.95872 23.4091 1.57548C21.2343 1.07432 19.0458 0.634384 16.8074 0.413661C15.9805 0.332024 15.1519 0.27382 14.3189 0.295741C13.9063 0.307079 13.4955 0.341095 13.1112 0.493787C12.8362 0.602637 12.6531 0.858131 12.6823 1.12043C12.6892 1.1809 12.7261 1.24969 12.7734 1.29504C13.0218 1.52937 13.278 1.76068 13.5943 1.92471C14.1212 2.19683 14.6421 2.48181 15.1888 2.71991C16.4645 3.27399 17.7762 3.75928 19.1163 4.17956C20.5475 4.62856 22.0028 5.00803 23.471 5.35121C25.2503 5.76771 27.0339 6.16909 28.8563 6.41854C29.7193 6.53646 30.5866 6.61507 31.4608 6.66647H31.4625ZM20.5613 28.3865C20.2252 28.3865 19.9785 28.3865 19.7309 28.3865C19.5315 28.3865 19.3329 28.3835 19.1335 28.388C19.0011 28.3911 18.9762 28.4236 18.9994 28.5347C19.0071 28.5702 19.0174 28.6057 19.0338 28.639C19.1816 28.9436 19.3123 29.2566 19.4833 29.5506C19.8065 30.1062 20.2329 30.6043 20.6678 31.0957C20.7658 31.206 20.8956 31.2635 21.0461 31.2998C21.5739 31.4275 22.1085 31.4147 22.6397 31.3398C23.5225 31.2159 24.352 30.9483 25.1351 30.5711C25.6311 30.3322 26.1004 30.0586 26.4933 29.6973C26.6721 29.5325 26.8233 29.3435 26.9807 29.1613C27.0451 29.0865 27.0769 28.9943 27.015 28.9066C26.7881 28.5823 26.6712 28.2089 26.415 27.8975C26.2595 27.7085 26.2689 27.7032 26.0205 27.7576C25.0328 27.9746 24.0314 28.1273 23.0197 28.2172C22.173 28.292 21.3229 28.3359 20.5613 28.3873V28.3865ZM9.59122 28.4349C9.63419 28.4629 9.64881 28.4772 9.66686 28.4833C9.71156 28.4984 9.75798 28.5112 9.80439 28.5211C10.5221 28.6715 11.1746 28.9436 11.7754 29.3193C12.4485 29.7403 13.1009 30.181 13.6381 30.7396C14.0834 31.203 14.4986 31.6823 14.7169 32.2688C14.729 32.3006 14.759 32.327 14.7848 32.3611C14.8184 32.3459 14.8484 32.3406 14.8631 32.3248C16.0046 31.0858 17.1178 29.8273 18.1639 28.5249C18.1897 28.4924 18.2017 28.4508 18.2335 28.3873C18.1226 28.3752 18.0315 28.3593 17.9395 28.3563C16.6948 28.3147 15.4622 28.1802 14.2381 27.9844C13.1826 27.8158 12.1442 27.5868 11.1264 27.2867C10.9941 27.2474 10.8961 27.2572 10.7938 27.3502C10.4448 27.6669 10.0872 27.9761 9.73391 28.289C9.68663 28.3306 9.64623 28.3775 9.59036 28.4341L9.59122 28.4349ZM29.6187 13.0931C29.5998 13.0357 29.5981 13.01 29.5843 12.9919C29.5027 12.8875 29.4262 12.7794 29.3342 12.6819C28.7892 12.1044 28.0912 11.8436 27.2385 11.923C26.5818 11.9842 26.0059 12.2246 25.5151 12.6026C24.1698 13.6404 23.5096 14.9557 23.5423 16.528C23.5535 17.0767 23.7048 17.6051 24.0091 18.0919C24.6116 19.0572 25.7411 19.442 26.9239 19.0837C26.9772 19.0678 27.0253 19.0398 27.107 19.0028C26.911 18.9136 26.7537 18.8508 26.5663 18.869C26.4709 18.8781 26.3729 18.8879 26.2792 18.8765C25.6509 18.8047 25.0861 18.6014 24.6056 18.2333C24.53 18.1758 24.4698 18.098 24.4191 18.0209C24.3813 17.9642 24.3735 17.8954 24.4603 17.8417C24.5747 17.9203 24.6804 18.0065 24.7999 18.073C24.9219 18.141 25.0509 18.2083 25.2099 18.2121C25.1557 18.1373 25.0896 18.0791 25.0242 18.0201C24.4793 17.528 24.1689 16.9339 24.1217 16.2551C24.0606 15.3737 24.389 14.5997 25.0982 13.967C25.2993 13.7878 25.5451 13.6472 25.7618 13.4809C26.0979 13.2239 26.4898 13.0742 26.9213 12.9964C27.3142 12.9253 27.713 12.9238 28.1119 12.9321C28.1841 12.9336 28.2563 12.9321 28.3749 12.9321C28.2528 12.8165 28.1308 12.7983 28.0173 12.7719C27.5359 12.6585 27.0615 12.7129 26.5938 12.8316C26.0635 12.9662 25.6027 13.2133 25.1841 13.5263C25.1205 13.5739 25.0517 13.6162 24.9847 13.6616C24.9709 13.6495 24.9572 13.6381 24.9434 13.6261C24.9933 13.5588 25.0337 13.4847 25.0939 13.4265C25.8193 12.725 26.7193 12.3667 27.8016 12.4053C28.276 12.4219 28.7084 12.5708 29.0222 12.8989C29.1829 13.0667 29.3798 13.0697 29.6196 13.0916L29.6187 13.0931ZM7.50242 24.3818C7.32792 24.446 7.28752 24.4747 7.24626 24.5715C7.16116 24.7703 7.18781 24.9547 7.36661 25.1052C7.50586 25.2216 7.65113 25.3327 7.80328 25.4362C8.39897 25.8422 9.05397 26.1612 9.74078 26.4265C10.1611 26.5882 10.5944 26.7266 11.0276 26.8604C11.435 26.9858 11.8468 27.1053 12.2637 27.2051C14.355 27.7055 16.4937 27.9292 18.653 28.0343C20.085 28.1038 21.5102 28.0426 22.932 27.9028C24.0735 27.7909 25.1996 27.5966 26.3033 27.3116C27.089 27.1091 27.8557 26.8619 28.5924 26.5436C28.8984 26.4114 29.1709 26.242 29.3849 26.0054C29.4795 25.9011 29.5293 25.7855 29.501 25.6517C29.4752 25.5285 29.409 25.4899 29.262 25.4899C29.207 25.5988 29.1743 25.7121 29.1012 25.7991C28.9207 26.0145 28.6818 26.1778 28.423 26.3191C27.7319 26.6956 26.9755 26.9307 26.1976 27.1174C24.4913 27.5278 22.7455 27.7055 20.985 27.7697C19.3088 27.8309 17.6335 27.8105 15.9642 27.6284C14.9946 27.5225 14.0344 27.3789 13.082 27.193C12.3359 27.0471 11.6138 26.8324 10.8892 26.6253C10.0416 26.3826 9.24222 26.0523 8.49352 25.6275C8.15742 25.437 7.85399 25.2102 7.57634 24.957C7.46202 24.8527 7.40701 24.7431 7.47491 24.5964C7.5007 24.5405 7.49296 24.4717 7.50328 24.381L7.50242 24.3818Z" fill="white"/>
<path d="M20.6611 17.5684C20.6017 17.6168 20.5596 17.6455 20.5252 17.6803C19.8255 18.3909 19.0003 18.9676 18.0866 19.4491C17.3233 19.8513 16.5264 20.1892 15.666 20.4001C14.9121 20.5845 14.148 20.6797 13.3632 20.6178C11.8185 20.4953 10.7449 19.8052 10.1767 18.5375C9.78471 17.6629 9.69016 16.7559 9.9274 15.8321C9.96952 15.6681 10.0314 15.5063 10.1062 15.3506C10.1483 15.2629 10.1389 15.2047 10.0701 15.1397C9.98156 15.0558 9.89732 14.9681 9.81136 14.8812C9.78471 14.854 9.74173 14.8268 9.73829 14.7966C9.73314 14.7482 9.73658 14.6862 9.76752 14.6507C9.81394 14.597 9.88958 14.6038 9.95233 14.6454C9.97382 14.6597 9.99101 14.6794 10.0056 14.6998C10.3305 15.176 10.7964 15.532 11.2967 15.8548C11.8305 16.1995 12.4176 16.4648 13.0142 16.7135C13.6563 16.9819 14.3285 17.1731 15.0222 17.3061C15.115 17.3243 15.2121 17.3235 15.3076 17.3349C15.3609 17.3409 15.4141 17.3515 15.4666 17.3636C15.519 17.3757 15.5706 17.4059 15.6222 17.4052C15.9798 17.3991 16.3201 17.5118 16.676 17.5178C17.0259 17.5238 17.3757 17.5443 17.7264 17.545C18.727 17.5488 19.6923 17.378 20.6327 17.0854C20.9129 16.9985 21.0058 17.0295 21.0891 17.2827C21.1828 17.5662 21.2456 17.858 21.3212 18.146C21.3255 18.1633 21.3307 18.1837 21.3247 18.1996C21.3109 18.2374 21.298 18.2986 21.2705 18.3054C21.2275 18.3168 21.1605 18.3032 21.1244 18.2775C21.0676 18.2367 21.0178 18.1822 20.9825 18.1255C20.9043 17.9986 20.8373 17.8663 20.7642 17.7363C20.735 17.6849 20.7023 17.6342 20.6611 17.5662V17.5684ZM18.1786 19.013C18.8955 18.6176 19.9975 17.8081 20.1092 17.5805C19.9167 17.6274 19.743 17.6788 19.5651 17.7106C19.4404 17.7332 19.3519 17.7877 19.2831 17.8746C19.1894 17.994 19.0218 18.056 18.9582 18.1996C18.947 18.2238 18.9058 18.2367 18.88 18.2563C18.8078 18.3107 18.7321 18.3629 18.666 18.4226C18.5336 18.5428 18.4064 18.6668 18.2774 18.79C18.2112 18.8535 18.1536 18.9208 18.1812 19.0145C18.0797 19.0014 18.0264 19.0266 18.0213 19.0901C18.078 19.0621 18.1287 19.0372 18.1786 19.013ZM12.4873 20.1272C12.5792 20.1529 12.6428 20.1778 12.7099 20.1854C12.7529 20.1907 12.8113 20.1824 12.8414 20.1589C12.9471 20.0758 13.0391 19.979 13.144 19.8944C13.37 19.7129 13.505 19.4514 13.7921 19.3236C13.8153 19.3138 13.8368 19.2911 13.8463 19.27C13.9623 19.0175 14.2357 18.8882 14.4445 18.7167C14.6405 18.5549 14.7875 18.3591 14.9861 18.2042C15.127 18.0946 15.1984 17.9215 15.4021 17.8655C15.4872 17.8421 15.4786 17.7627 15.4528 17.6985C15.3024 17.6153 15.1872 17.6304 15.0763 17.7544C14.9517 17.895 14.7806 17.9963 14.656 18.1422C14.5305 18.2888 14.3612 18.4067 14.209 18.536C14.1273 18.6063 14.0405 18.6713 13.9589 18.7424C13.8041 18.8777 13.6305 19.0009 13.5041 19.1543C13.3692 19.3184 13.1981 19.4446 13.0365 19.5822C12.8741 19.7205 12.7056 19.852 12.5448 19.9919C12.5156 20.0176 12.5113 20.0659 12.4864 20.1264L12.4873 20.1272ZM14.8967 17.6244C14.8872 17.6115 14.8778 17.5994 14.8683 17.5866C14.7015 17.5866 14.5305 17.5745 14.4282 17.737C14.4127 17.762 14.3818 17.7809 14.356 17.8005C14.1669 17.9441 13.9675 18.0794 13.7887 18.2329C13.5884 18.4045 13.4062 18.5927 13.2153 18.7726C13.1878 18.7991 13.1569 18.8225 13.1276 18.8482C12.9583 18.9986 12.7546 19.1218 12.6411 19.3168C12.6231 19.3486 12.5999 19.3811 12.5681 19.4023C12.391 19.5202 12.213 19.6366 12.0325 19.7507C11.9259 19.818 11.9182 19.9072 12.0308 19.9631C12.1039 19.9994 12.1916 20.0153 12.2655 20.038C12.3196 19.9707 12.3514 19.9185 12.3961 19.877C12.4511 19.8256 12.5216 19.7863 12.5749 19.7341C12.7331 19.5807 12.8809 19.4181 13.0451 19.27C13.1483 19.1762 13.2824 19.1097 13.3855 19.016C13.56 18.8595 13.7199 18.6902 13.8884 18.5284C13.9434 18.4755 14.007 18.4287 14.068 18.3803C14.1746 18.2971 14.2881 18.22 14.3895 18.1316C14.5193 18.019 14.6422 17.8988 14.7643 17.7793C14.8133 17.7317 14.8528 17.6765 14.8958 17.6244H14.8967ZM13.7208 20.2874C13.9159 20.3018 14.0947 20.3124 14.2821 20.2625C14.2958 20.1476 14.3551 20.0591 14.4669 19.9972C14.5064 19.9752 14.5382 19.9405 14.5666 19.9072C14.7248 19.722 14.8846 19.5383 15.0952 19.3947C15.1812 19.3357 15.2689 19.279 15.3514 19.2163C15.5259 19.0848 15.629 18.8988 15.8061 18.7658C15.9548 18.6539 16.0649 18.502 16.2041 18.3795C16.3631 18.2397 16.5385 18.1127 16.7035 17.9774C16.7302 17.9562 16.7405 17.9199 16.7646 17.8791C16.6236 17.8428 16.4912 17.8013 16.382 17.8897C16.2067 18.0318 16.0442 18.1868 15.8783 18.3387C15.7838 18.4249 15.6987 18.5186 15.6024 18.6025C15.4863 18.7031 15.3609 18.7953 15.2414 18.8928C15.1571 18.9623 15.0523 19.0236 14.9998 19.109C14.9156 19.2473 14.7007 19.2881 14.6775 19.4658C14.6758 19.4763 14.6414 19.4816 14.6259 19.493C14.4591 19.6177 14.2855 19.7356 14.1308 19.8702C13.9915 19.9911 13.8738 20.1302 13.7199 20.2882L13.7208 20.2874ZM16.2093 17.8315C16.0597 17.7839 15.929 17.7264 15.813 17.7831C15.6995 17.8391 15.611 17.9381 15.519 18.0243C15.3368 18.1943 15.1674 18.3765 14.9783 18.5398C14.7643 18.7242 14.5331 18.8935 14.3104 19.0704C14.301 19.078 14.2932 19.0893 14.2872 19.0999C14.209 19.2397 14.0792 19.3335 13.9357 19.4204C13.7895 19.5088 13.6451 19.6011 13.5789 19.759C13.5617 19.7991 13.5067 19.8271 13.4689 19.8611C13.4027 19.9201 13.3391 19.9828 13.2686 20.038C13.1947 20.0962 13.1139 20.1476 13.0039 20.2247C13.0993 20.2466 13.1552 20.2625 13.2119 20.2723C13.346 20.2965 13.4551 20.2836 13.5523 20.1733C13.7861 19.9087 14.0715 19.685 14.3139 19.4234C14.5064 19.2156 14.7626 19.0485 14.9775 18.8489C15.1717 18.669 15.4004 18.5179 15.5972 18.3395C15.7666 18.1868 15.9127 18.0144 16.1371 17.9154C16.1577 17.9063 16.1689 17.8791 16.2093 17.8315ZM17.5244 17.926C17.3336 17.895 17.1746 17.8519 17.0465 17.9653C16.8591 18.1308 16.6846 18.3085 16.5041 18.4801C16.4345 18.5466 16.3648 18.6139 16.2892 18.6751C16.0502 18.8694 15.807 19.0598 15.5672 19.2533C15.4683 19.3327 15.3712 19.4144 15.2775 19.4983C15.011 19.7379 14.7875 20.0176 14.4437 20.1854C14.4248 20.1944 14.417 20.2217 14.3947 20.2534C14.5649 20.2738 14.7093 20.2338 14.8554 20.2171C14.9947 20.2012 15.1124 20.137 15.1735 20.0365C15.3196 19.7976 15.5904 19.6668 15.7786 19.4665C15.9428 19.2911 16.1714 19.1634 16.2823 18.9465C16.2978 18.9162 16.3313 18.8867 16.3648 18.8709C16.5497 18.7839 16.6863 18.6524 16.8118 18.5095C16.933 18.3727 17.0577 18.2404 17.2339 18.1497C17.3302 18.0998 17.4058 18.019 17.5236 17.926H17.5244ZM17.6972 17.923C17.6104 18.0326 17.5519 18.1195 17.4789 18.1958C17.3792 18.2994 17.2691 18.3954 17.1617 18.4929C17.0396 18.604 16.9107 18.7099 16.7929 18.8232C16.6322 18.9782 16.486 19.1453 16.3184 19.2942C16.0631 19.5202 15.7941 19.7341 15.5328 19.9541C15.4932 19.9873 15.4614 20.0281 15.4262 20.0659C15.4365 20.0758 15.4459 20.0856 15.4563 20.0954C15.6927 20.0357 15.9436 20.0168 16.1216 19.8233C16.3055 19.6237 16.5084 19.4385 16.707 19.2496C16.7886 19.1717 16.8858 19.1075 16.9631 19.0273C17.0757 18.9117 17.2433 18.8361 17.2984 18.6774C17.3001 18.6721 17.3078 18.6683 17.313 18.6645C17.4978 18.5224 17.6852 18.3818 17.8683 18.2367C17.986 18.1429 18.0969 18.0424 18.2207 17.9366C18.0445 17.8889 17.8726 17.8889 17.6981 17.923H17.6972ZM18.9995 17.8534C18.788 17.8262 18.6875 17.8572 18.5336 17.9026C18.3402 17.9592 18.2628 18.1127 18.1399 18.2246C17.9327 18.4135 17.7539 18.6267 17.5623 18.8285C17.5313 18.861 17.4935 18.8875 17.4574 18.9155C17.3439 19.0016 17.2253 19.0833 17.117 19.174C17.0585 19.2231 17.0233 19.2934 16.9674 19.3448C16.8221 19.4786 16.6709 19.6079 16.5222 19.7394C16.7852 19.6993 17.0259 19.6268 17.2219 19.4824C17.3456 19.3909 17.4385 19.2685 17.5554 19.1687C17.7505 19.0009 17.9602 18.8444 18.1519 18.6736C18.4184 18.4355 18.6754 18.1883 18.935 17.9441C18.9608 17.9199 18.9763 17.8874 19.0003 17.8534H18.9995ZM12.158 19.4136C12.2835 19.4174 12.3334 19.3365 12.385 19.2617C12.4168 19.2163 12.4305 19.1543 12.4735 19.1218C12.703 18.9502 12.9179 18.7696 13.1165 18.567C13.3322 18.3463 13.5927 18.1603 13.8316 17.9577C13.8531 17.9396 13.8652 17.9131 13.8901 17.8784C13.3253 18.0144 12.2139 19.0024 12.158 19.4128V19.4136Z" fill="white"/>
<path d="M20.6934 15.3328C20.5275 15.2504 20.3556 15.1756 20.1974 15.0833C19.0585 14.4227 17.8336 13.9019 16.6104 13.3803C16.2545 13.2284 15.8634 13.1399 15.4895 13.0197C15.4121 12.9948 15.3322 12.9713 15.2643 12.932C15.1835 12.8859 15.2015 12.8134 15.2935 12.7839C15.3064 12.7801 15.321 12.7748 15.3339 12.7763C15.5264 12.7975 15.5746 12.6871 15.6124 12.5526C15.8015 11.8776 16.1187 11.2517 16.5562 10.6727C16.7892 10.3642 17.0462 10.0755 17.3823 9.84721C17.7803 9.57735 18.2238 9.47228 18.7181 9.57357C19.5914 9.75348 20.2482 10.1851 20.6461 10.8979C20.831 11.2282 20.8748 11.5918 20.8937 11.9554C20.9014 12.1119 20.9049 12.2706 20.886 12.4263C20.8645 12.6055 20.8439 12.7899 20.7768 12.9585C20.5739 13.4725 20.3315 13.9722 19.9868 14.4287C19.8794 14.5708 19.8888 14.5723 20.0453 14.691C20.2421 14.8407 20.433 14.9972 20.6229 15.1536C20.6694 15.1922 20.702 15.2436 20.7416 15.2897C20.7261 15.3041 20.7098 15.3177 20.6943 15.332L20.6934 15.3328ZM20.5232 12.7189C20.5593 12.7 20.5765 12.6954 20.5791 12.6879C20.5929 12.641 20.6092 12.5942 20.6135 12.5465C20.6565 12.0605 20.6264 11.5805 20.433 11.1179C20.3479 10.913 20.2241 10.7256 20.0608 10.5585C19.7522 10.241 19.3507 10.0468 18.9218 9.89332C18.5092 9.74592 18.0992 9.77615 17.7124 9.96891C17.4407 10.1035 17.2052 10.2796 17.0307 10.5101C16.6998 10.9486 16.4049 11.4051 16.1892 11.898C16.0577 12.1981 16.0198 12.5155 15.9365 12.8383C16.3027 12.9441 16.6327 13.0878 17.0084 13.1618C17.0238 13.0915 17.0333 13.0454 17.0445 13.0001C17.0849 12.8353 17.1107 12.666 17.17 12.5065C17.3505 12.0212 17.6694 11.6221 18.1662 11.3446C18.2367 11.3053 18.3184 11.2834 18.4129 11.2464C18.4327 11.3212 18.4508 11.3666 18.4559 11.4127C18.4851 11.7075 18.5101 12.0023 18.5376 12.2963C18.5436 12.3636 18.5178 12.4407 18.6244 12.511C18.6605 12.4377 18.6957 12.3765 18.7215 12.3122C18.8565 11.9698 18.9846 11.6258 19.123 11.2849C19.1848 11.1322 19.2313 11.1096 19.4023 11.1678C19.5605 11.2214 19.7212 11.2849 19.8562 11.3734C20.2602 11.6394 20.4416 12.0166 20.4983 12.4475C20.5095 12.5344 20.5155 12.6214 20.5249 12.7189H20.5232Z" fill="white"/>
<path d="M23.3721 9.84735C23.3429 9.96451 23.2905 10.0545 23.2011 10.1263C23.1306 10.1837 23.0566 10.2382 22.981 10.2903C22.7541 10.446 22.5314 10.6085 22.2959 10.7522C22.1395 10.8474 21.9641 10.9207 21.7913 10.9941C21.7535 11.0099 21.6873 10.9918 21.6435 10.9736C21.61 10.96 21.5893 10.9207 21.5653 10.892C21.2713 10.5352 20.9696 10.183 20.685 9.82014C20.2424 9.25472 19.6484 8.82537 19.051 8.3998C18.9143 8.30229 18.745 8.23879 18.5919 8.15867C18.5275 8.12465 18.4596 8.09366 18.4011 8.05208C18.2748 7.96213 18.2593 7.86689 18.3538 7.75199C18.6478 7.3937 18.8945 7.01197 19.1068 6.61134C19.2805 6.28176 19.3596 6.25228 19.7197 6.43068C20.2458 6.69071 20.7564 6.97493 21.1982 7.34381C21.5317 7.62198 21.8739 7.89032 22.179 8.19495C22.5667 8.58197 22.9028 8.99923 23.1856 9.44975C23.2638 9.57447 23.3111 9.71431 23.3721 9.84735Z" fill="white"/>
<path d="M14.2822 12.5221C14.1593 12.5773 14.0802 12.5274 14.0003 12.4994C13.5782 12.3543 13.157 12.2076 12.7367 12.0587C12.3533 11.9227 11.957 11.8267 11.5504 11.7632C11.2866 11.7223 11.0218 11.6845 10.7605 11.6339C10.6264 11.6082 10.4708 11.6052 10.3711 11.4548C10.445 11.4268 10.5069 11.392 10.574 11.3814C10.702 11.361 10.8327 11.3504 10.9625 11.3421C11.0553 11.3361 11.0966 11.2983 11.0992 11.2166C11.1267 10.5326 11.3742 9.90062 11.7215 9.30044C12.0447 8.74107 12.5484 8.3548 13.2352 8.14315C13.7175 7.99499 14.553 8.28753 14.724 8.85748C14.8306 9.21199 14.8427 9.56122 14.7773 9.91498C14.7008 10.3322 14.6235 10.7503 14.5117 11.1607C14.4197 11.5001 14.2822 11.8304 14.1533 12.1615C14.1112 12.2689 14.0802 12.3543 14.2169 12.4231C14.2452 12.4374 14.2547 12.4798 14.2814 12.5221H14.2822ZM14.4232 10.0208C14.4481 10.0004 14.461 9.99435 14.467 9.98377C14.4765 9.9679 14.4842 9.95051 14.4877 9.93312C14.553 9.54988 14.5427 9.17647 14.3432 8.81817C14.1369 8.44854 13.6728 8.28375 13.2352 8.43115C12.667 8.62239 12.3069 8.99505 12.0559 9.46447C11.81 9.92557 11.6699 10.4199 11.4843 10.8999C11.4421 11.008 11.4181 11.1222 11.3966 11.2348C11.3717 11.3648 11.3845 11.3792 11.5255 11.4162C11.6639 11.4517 11.8032 11.4857 11.9433 11.5152C11.9854 11.5243 12.0318 11.5167 12.1006 11.5167C12.0249 11.1713 12.1006 10.8629 12.2656 10.5696C12.4289 10.2801 12.6473 10.0314 12.9911 9.84468C13.0289 9.92179 13.0607 9.97319 13.0788 10.0284C13.1596 10.274 13.2834 10.5023 13.4407 10.717C13.4639 10.748 13.5043 10.7699 13.537 10.7964C13.6444 10.7314 13.6392 10.6414 13.6521 10.5605C13.6917 10.3156 13.7261 10.0699 13.7656 9.82427C13.7888 9.68292 13.8378 9.65268 13.9857 9.71618C14.1 9.76531 14.2006 9.84166 14.3028 9.9112C14.3484 9.94219 14.3845 9.98453 14.424 10.0216L14.4232 10.0208Z" fill="white"/>
<path d="M14.7981 5.36816C15.0027 5.38857 15.2082 5.40445 15.411 5.43242C15.4901 5.443 15.5666 5.47701 15.6397 5.50876C15.736 5.55034 15.7764 5.62517 15.766 5.71815C15.7557 5.8081 15.7403 5.89805 15.7274 5.988C15.6895 6.25786 15.6517 6.52696 15.6139 6.79682C15.6087 6.8331 15.6105 6.86938 15.6027 6.90491C15.5468 7.14982 15.4695 7.23826 15.154 7.19593C14.2609 7.07499 13.3884 7.16419 12.534 7.41968C12.3329 7.48015 12.1283 7.53609 11.9211 7.57313C11.7036 7.61243 11.5945 7.52097 11.6417 7.33199C11.7286 6.98428 11.8343 6.6411 11.9374 6.29641C11.9839 6.1407 12.1051 6.04243 12.2675 5.96835C12.9724 5.64709 13.7245 5.47097 14.5085 5.38857C14.5497 5.38404 14.5901 5.38101 14.6314 5.38026C14.6864 5.37875 14.7414 5.38026 14.7964 5.38026C14.7964 5.37648 14.7973 5.3727 14.7981 5.36816Z" fill="white"/>
<path d="M9.73031 18.6656C9.73891 18.7148 9.75008 18.7639 9.7561 18.8138C9.79392 19.126 9.83776 19.4359 9.99335 19.7269C10.2615 20.2266 10.7042 20.5803 11.2191 20.8713C11.7607 21.1767 12.3649 21.3264 12.9985 21.4027C14.1563 21.5418 15.2514 21.3423 16.3139 20.9484C16.4592 20.8948 16.6079 20.8479 16.7566 20.8018C16.7987 20.7889 16.846 20.7897 16.9259 20.7806C16.8872 20.8381 16.8743 20.8812 16.8425 20.9023C16.7102 20.9877 16.5795 21.0785 16.4351 21.1457C15.7723 21.4519 15.0649 21.6378 14.3231 21.727C13.595 21.8147 12.8721 21.8102 12.1561 21.6492C11.5767 21.5184 11.0369 21.3098 10.5856 20.9598C9.8412 20.3823 9.5541 19.643 9.63404 18.7835C9.63748 18.7427 9.66412 18.7034 9.6796 18.6626C9.69593 18.6641 9.71226 18.6656 9.72859 18.6671L9.73031 18.6656Z" fill="white"/>
<path d="M13.5816 15.7546C13.5412 15.7394 13.493 15.7319 13.4604 15.7084C12.7538 15.1997 12.1203 14.6328 11.6776 13.923C11.5839 13.7726 11.5169 13.5995 11.4868 13.4302C11.4077 12.9895 11.6647 12.6773 12.1598 12.579C12.5587 12.4996 12.9541 12.5359 13.3409 12.6334C13.6117 12.7015 13.8756 12.7892 14.1412 12.8693C14.1721 12.8791 14.2048 12.8942 14.228 12.9146C14.277 12.9592 14.2546 13.031 14.1859 13.0409C14.1403 13.0477 14.0905 13.0378 14.044 13.0303C13.5902 12.9555 13.1312 12.9282 12.6704 12.9373C12.5277 12.9403 12.3825 12.96 12.2441 12.9932C12.0163 13.0484 11.9148 13.1686 11.9604 13.3712C12.0042 13.564 12.067 13.7628 12.1744 13.9336C12.3532 14.2178 12.5613 14.4892 12.7805 14.7515C13.016 15.0334 13.2773 15.2987 13.5257 15.5724C13.5653 15.6155 13.5936 15.6669 13.6271 15.7145C13.6117 15.7273 13.5962 15.7409 13.5807 15.7538L13.5816 15.7546Z" fill="white"/>
<path d="M4.23983 32.3298C4.44957 32.3971 4.60687 32.5589 4.85357 32.5982C4.85099 32.4356 4.76074 32.3109 4.71518 32.1756C4.6636 32.0214 4.45558 32.0169 4.32235 31.8808H4.55959C4.47707 31.5573 4.27679 31.3146 3.9596 31.1408C3.7576 31.0297 3.56505 30.9049 3.36391 30.7923C3.25818 30.7334 3.14557 30.6842 3.03297 30.6351C2.97538 30.6094 2.93755 30.5716 2.97022 30.5225C3.0046 30.4696 3.06391 30.4847 3.11205 30.5187C3.20231 30.5829 3.28913 30.6517 3.38196 30.7129C3.44127 30.7523 3.5066 30.7885 3.57451 30.815C3.68196 30.8558 3.77737 30.9019 3.84872 30.9904C3.89857 31.0524 3.97336 31.1075 4.07565 31.0599C4.07909 31.0448 4.08768 31.0304 4.08252 31.0221C3.88138 30.7039 3.66047 30.3993 3.296 30.2035C3.22122 30.1634 3.17394 30.1264 3.15761 30.0417C3.14643 29.9827 3.07079 29.9329 3.0175 29.8716C2.96764 29.9102 2.93841 29.9321 2.90231 29.9593C2.86191 29.9434 2.81721 29.9291 2.77595 29.9087C2.58598 29.8149 2.43728 29.8505 2.34358 30.016C2.2516 30.1793 2.10462 30.3169 2.0625 30.5058C2.0539 30.5444 1.96278 30.5686 1.90949 30.5996C1.88542 30.5542 1.83557 30.5051 1.84244 30.4635C1.89316 30.1407 2.00318 29.8361 2.29287 29.6124C2.51464 29.4408 2.77853 29.4158 3.04586 29.5133C3.32093 29.6131 3.55646 29.762 3.74729 29.9722C4.02923 30.2828 4.23037 30.6313 4.41518 30.9889C4.91632 31.9609 5.28423 32.9716 5.53694 34.0155C5.58422 34.2097 5.61345 34.4085 5.6719 34.6005C5.73207 34.7993 5.73293 35.0042 5.78193 35.2022C5.80428 35.2945 5.87218 35.3791 5.88422 35.4706C5.89625 35.5605 5.85155 35.6565 5.85671 35.748C5.86273 35.8417 5.90055 35.934 5.92204 36.0269C5.92892 36.0549 5.93321 36.0851 5.93063 36.1131C5.92376 36.1955 5.89281 36.2794 5.90657 36.3588C5.94095 36.5561 5.91086 36.7526 5.91774 36.9491C5.92892 37.3052 5.88164 37.6551 5.79998 38.0029C5.74926 38.2183 5.65987 38.4194 5.52577 38.6053C5.25328 38.981 4.81575 39.0687 4.38854 38.8291C4.2914 38.7746 4.20115 38.7066 4.12121 38.6325C4.09628 38.6091 4.10143 38.5426 4.12121 38.507C4.1298 38.4904 4.20974 38.4897 4.24842 38.5025C4.29742 38.5191 4.33524 38.5607 4.38252 38.5849C4.4745 38.6318 4.56991 38.6741 4.6636 38.7179C4.67306 38.7051 4.68252 38.6922 4.69197 38.6801C4.55014 38.5766 4.40831 38.473 4.26648 38.3695L4.29828 38.3324C4.37564 38.3732 4.45558 38.4103 4.52951 38.4549C4.63094 38.5161 4.72807 38.5834 4.82865 38.6461C4.94727 38.7195 5.01775 38.7149 5.11747 38.6219C5.27133 38.4776 5.36073 38.3007 5.41402 38.111C5.42606 38.0671 5.39769 38.0051 5.36761 37.9636C5.32721 37.9091 5.26617 37.866 5.21374 37.8177L5.20858 37.8222C5.29196 37.8426 5.37534 37.863 5.47162 37.8864C5.54898 37.7768 5.54296 37.6491 5.56531 37.5342C5.52061 37.4216 5.32635 37.4533 5.30743 37.2946C5.40543 37.3293 5.48451 37.3573 5.57305 37.3891C5.63838 37.2439 5.66588 37.1079 5.57391 36.9711C5.70972 36.8478 5.66072 36.6989 5.65643 36.5583C5.65643 36.5357 5.61946 36.5092 5.59282 36.4933C5.1656 36.2371 4.74183 35.9748 4.30688 35.7291C4.03095 35.5734 3.78425 35.3769 3.50402 35.2378C3.21348 35.0934 2.99429 34.8553 2.66507 34.7684C2.61693 34.7555 2.58341 34.7018 2.54215 34.6663C2.61091 34.5915 2.66421 34.6096 2.72008 34.6414C2.8344 34.7079 2.94873 34.7744 3.06391 34.8402C3.547 35.1146 4.03267 35.3844 4.51146 35.6641C4.69713 35.7722 4.86819 35.8999 5.04354 36.0209C5.21718 36.1403 5.41058 36.222 5.6315 36.2938C5.67878 36.1275 5.69339 35.9922 5.53007 35.8909C5.40801 35.8145 5.28509 35.7397 5.16302 35.6633C5.13208 35.6437 5.10285 35.6225 5.08308 35.5855C5.26703 35.6097 5.41316 35.7079 5.57047 35.7835C5.6762 35.5734 5.60829 35.3912 5.41059 35.2703C5.1338 35.1002 4.83724 34.9551 4.56647 34.7767C4.44269 34.6958 4.3043 34.6315 4.17192 34.5612C4.09628 34.5212 4.08854 34.4743 4.15215 34.3912C4.23983 34.4373 4.32837 34.4773 4.40831 34.528C4.72464 34.7283 5.03666 34.9339 5.35299 35.1342C5.40027 35.1637 5.46044 35.1773 5.52749 35.2038C5.56273 35.0496 5.53523 34.9241 5.47162 34.8016C5.4527 34.7646 5.42434 34.7207 5.43207 34.6852C5.47248 34.4977 5.42262 34.3284 5.32721 34.1636C5.31259 34.1379 5.29884 34.1054 5.30228 34.0782C5.32978 33.8598 5.24039 33.6655 5.15787 33.4667C5.10027 33.3269 5.08308 33.1749 5.04354 33.029C5.0126 32.9149 4.95758 32.8302 4.82091 32.7682C4.64126 32.6866 4.48567 32.5619 4.32579 32.4493C4.28711 32.422 4.27335 32.3684 4.24756 32.3276L4.24327 32.3306L4.23983 32.3298Z" fill="white"/>
<path d="M2.68077 34.1026C2.83206 34.1132 2.93693 34.1949 3.05899 34.2652C3.23348 34.3657 3.37532 34.4995 3.57044 34.5864C3.85754 34.7134 4.08963 34.9326 4.3733 35.0679C4.51513 35.136 4.58733 35.2758 4.76699 35.3045C4.84091 35.3166 4.97501 35.3786 4.96727 35.5184C4.92429 35.5116 4.88045 35.5154 4.85294 35.4988C4.65094 35.3778 4.45324 35.2516 4.25209 35.1299C4.15066 35.0687 4.05009 35.0029 3.94006 34.9576C3.73204 34.8706 3.57216 34.73 3.39165 34.6129C3.25583 34.5252 3.09939 34.4624 2.9524 34.3869C2.88191 34.3498 2.81143 34.312 2.74438 34.2697C2.67733 34.2281 2.63779 34.1744 2.68421 34.0996L2.67991 34.1019L2.68077 34.1026Z" fill="white"/>
<path d="M3.13867 36.0226C3.15672 36.0158 3.17821 36.0007 3.19283 36.0045C3.22291 36.0121 3.25214 36.0272 3.27878 36.0431C3.92777 36.4308 4.59825 36.7922 5.19566 37.2434C4.8183 37.1467 3.25386 36.2094 3.13867 36.0226Z" fill="white"/>
<path d="M4.24563 32.3263C4.16053 32.3558 4.09348 32.3354 4.02042 32.2855C3.84335 32.1645 3.66111 32.0489 3.47286 31.9416C3.25023 31.8146 3.0147 31.7057 2.79379 31.5765C2.53334 31.4245 2.28148 31.2597 2.0279 31.0987C2.00555 31.0844 1.99695 31.0534 1.99609 31.0171C2.77316 31.4207 3.5296 31.8448 4.24133 32.3308L4.24649 32.3271L4.24563 32.3263Z" fill="white"/>
<path d="M4.17505 31.7798C3.44096 31.4797 2.84269 31.0042 2.16619 30.6338C2.16447 30.6331 2.17565 30.6142 2.18596 30.5938C2.35186 30.6013 2.45587 30.7177 2.58825 30.782C2.79111 30.8802 2.9871 30.9898 3.1805 31.1017C3.36188 31.2068 3.53465 31.3224 3.71259 31.432C3.79597 31.4834 3.87849 31.5364 3.96789 31.5779C4.06674 31.624 4.14238 31.6822 4.17505 31.7805V31.7798Z" fill="white"/>
<path d="M5.17289 34.0124C5.0302 33.9452 4.87547 33.893 4.74739 33.8091C4.27892 33.5007 3.72964 33.2928 3.27148 32.9043C3.33939 32.9013 3.36776 32.8914 3.38323 32.8998C3.58609 33.0146 3.80787 33.0978 4.00901 33.2218C4.26001 33.3767 4.48952 33.5559 4.7431 33.7071C4.84367 33.7668 4.95971 33.8061 5.06372 33.8605C5.11874 33.8892 5.16429 33.9323 5.21329 33.9686L5.17203 34.0117L5.17289 34.0124Z" fill="white"/>
<path d="M3.41587 37.2305C3.5216 37.2909 3.62733 37.3507 3.7322 37.4111C4.03477 37.5857 4.33735 37.7604 4.63906 37.935C4.74049 37.9939 4.84536 38.0491 4.94249 38.1134C4.9657 38.1285 4.96398 38.1731 4.98204 38.2328C4.85138 38.1753 4.74651 38.1383 4.65195 38.0854C4.43964 37.966 4.23334 37.8382 4.02446 37.7158C3.90583 37.6455 3.79065 37.5684 3.66343 37.5124C3.53449 37.4557 3.45369 37.368 3.37891 37.2698C3.39094 37.2569 3.40297 37.2433 3.41501 37.2305H3.41587Z" fill="white"/>
<path d="M3.53788 34.1245C3.36854 34.0897 3.21811 34.0134 3.07456 33.9279C2.88975 33.8183 2.71009 33.7012 2.52786 33.5885C2.50035 33.5711 2.45823 33.5643 2.4419 33.5424C2.42299 33.5152 2.40752 33.4706 2.42127 33.4457C2.43331 33.4237 2.48746 33.4071 2.52012 33.4094C2.55795 33.4117 2.59577 33.4351 2.62843 33.4555C2.9121 33.6316 3.19576 33.8085 3.47684 33.9877C3.51295 34.0103 3.53444 34.0496 3.56366 34.0806C3.55507 34.095 3.54561 34.1101 3.53702 34.1245H3.53788Z" fill="white"/>
<path d="M3.87109 35.9165C3.94846 35.8643 4.00777 35.9006 4.07224 35.9422C4.27424 36.0737 4.47968 36.2014 4.6834 36.3322C4.85704 36.4433 5.02982 36.5559 5.20517 36.6693C5.15188 36.7343 5.10202 36.717 5.05474 36.689C4.91291 36.6051 4.77452 36.5166 4.63183 36.435C4.43326 36.3216 4.23126 36.2113 4.02926 36.1032C3.91149 36.0404 3.89946 36.0314 3.87195 35.9172L3.87109 35.9165Z" fill="white"/>
<path d="M2.28992 34.9882C2.38534 35.0328 2.48075 35.0782 2.57702 35.122C2.66556 35.1628 2.76098 35.1946 2.8435 35.2429C3.01799 35.3457 3.17616 35.475 3.36097 35.5589C3.50194 35.6232 3.63432 35.6889 3.74692 35.7857C3.76067 35.797 3.76497 35.8167 3.77271 35.8303C3.74262 35.8953 3.68503 35.893 3.63517 35.8711C3.56211 35.8393 3.47787 35.8091 3.42887 35.7562C3.28274 35.5959 3.07902 35.5098 2.88905 35.4047C2.72143 35.3117 2.55467 35.2195 2.38706 35.128C2.32517 35.094 2.27531 35.0562 2.29508 34.9829L2.28906 34.9874L2.28992 34.9882Z" fill="white"/>
<path d="M2.82313 36.4146C3.05349 36.4259 3.20478 36.5211 3.33372 36.6254C3.51853 36.7744 3.74632 36.8537 3.95004 36.9701C3.97841 36.986 4.02397 36.9853 4.04202 37.0057C4.06695 37.0344 4.09531 37.0835 4.08328 37.1107C4.05835 37.1682 3.9956 37.1584 3.94575 37.1296C3.87268 37.0865 3.80735 37.0321 3.73171 36.9943C3.41366 36.8356 3.13086 36.636 2.82227 36.4146H2.82313Z" fill="white"/>
<path d="M3.33173 32.3735C3.11683 32.3228 2.46183 31.9419 2.33203 31.8013C2.3475 31.7423 2.39134 31.7415 2.43862 31.7688C2.68102 31.9078 2.92085 32.0492 3.16325 32.1875C3.23632 32.2291 3.3154 32.2646 3.33173 32.3735Z" fill="white"/>
<path d="M4.11133 33.8959C4.23941 33.8944 4.33482 33.9291 4.43367 34.0168C4.56949 34.1385 4.7457 34.2247 4.90387 34.3282C4.95544 34.3623 5.00358 34.4001 5.03452 34.4681C5.00014 34.4628 4.95888 34.4666 4.93223 34.4507C4.69757 34.3146 4.46204 34.1786 4.23339 34.035C4.18267 34.0032 4.15603 33.9405 4.1182 33.8921L4.11219 33.8959H4.11133Z" fill="white"/>
<path d="M4.1175 33.8924C4.05818 33.8811 3.99114 33.8811 3.94128 33.8554C3.78398 33.773 3.63183 33.6823 3.48054 33.5908C3.38169 33.5311 3.28714 33.4661 3.17969 33.3958C3.26651 33.3217 3.31292 33.2998 3.4006 33.3716C3.54931 33.4933 3.67911 33.6339 3.89142 33.6929C3.97996 33.7178 4.03841 33.8266 4.11148 33.8969L4.1175 33.8932V33.8924Z" fill="white"/>
<path d="M4.62864 37.3882C4.7825 37.4789 4.93379 37.5727 5.09024 37.6596C5.16158 37.6989 5.23551 37.7291 5.20628 37.8214L5.21144 37.8168C5.0868 37.835 4.98709 37.7994 4.89941 37.7186C4.84869 37.6717 4.78938 37.6279 4.72491 37.5969C4.62262 37.5477 4.60457 37.4767 4.62864 37.3867V37.3882Z" fill="white"/>
<path d="M2.75864 32.571C2.56437 32.5181 2.0469 32.2172 1.93945 32.085C1.99791 32.0895 2.04862 32.0812 2.083 32.0978C2.32025 32.2112 2.72168 32.4962 2.75864 32.5703V32.571Z" fill="white"/>
<path d="M2.39453 35.5894C2.63779 35.6166 2.7865 35.7783 2.97819 35.8743C3.00398 35.8872 3.00656 35.9363 3.0014 35.9794C2.76845 35.8766 2.53722 35.7836 2.39453 35.5894Z" fill="white"/>
<path d="M3.39453 32.4743C3.49424 32.3851 3.56473 32.4206 3.60513 32.4584C3.72891 32.5726 3.94896 32.5847 4.01429 32.76C3.75556 32.7562 3.62662 32.5574 3.39453 32.4743Z" fill="white"/>
<path d="M2.6851 34.1001C2.63868 34.0986 2.58452 34.1099 2.5467 34.0933C2.35416 34.0079 2.16333 33.9194 2.00602 33.7856C1.99313 33.7743 1.98969 33.7547 1.97852 33.732C2.04728 33.6904 2.09972 33.732 2.1427 33.7584C2.32321 33.8711 2.50028 33.9882 2.67908 34.1031C2.67994 34.1031 2.68424 34.1001 2.68424 34.1001H2.6851Z" fill="white"/>
<path d="M1.79492 32.5606C1.96856 32.5561 2.23331 32.7073 2.37944 32.8857C2.11211 32.8388 2.00122 32.6355 1.79492 32.5606Z" fill="white"/>
<path d="M3.41211 37.8085C3.59692 37.9135 3.78173 38.0194 3.96654 38.1244C3.95709 38.1373 3.94849 38.1501 3.93904 38.1622C3.76368 38.0753 3.58145 37.999 3.43274 37.8735C3.41727 37.8599 3.42156 37.8281 3.41727 37.8047L3.41211 37.8085Z" fill="white"/>
<path d="M4.01846 34.4254C3.84826 34.4186 3.78981 34.2788 3.62305 34.2319C3.83021 34.1616 3.97118 34.2448 4.01846 34.4254Z" fill="white"/>
<path d="M2.31424 33.3898C2.11482 33.3671 2.01855 33.2598 1.89648 33.1683C2.06238 33.1305 2.1578 33.1804 2.31424 33.3898Z" fill="white"/>
<path d="M4.41992 33.045C4.4586 33.045 4.50416 33.0322 4.53511 33.0458C4.64341 33.0934 4.74914 33.1471 4.85143 33.2045C4.87808 33.2197 4.88754 33.2582 4.89098 33.2998C4.7096 33.2461 4.57465 33.132 4.42422 33.0398L4.41992 33.045Z" fill="white"/>
<path d="M4.42405 33.0406C4.35099 33.0103 4.27707 32.9831 4.20572 32.9499C4.15243 32.9249 4.10171 32.8932 4.12492 32.8267C4.31661 32.8372 4.38795 32.8917 4.41976 33.0451L4.42405 33.0406Z" fill="white"/>
<path d="M2.8418 33.144C3.07045 33.1697 3.0799 33.1773 3.06701 33.3058C2.96042 33.2952 2.87532 33.2642 2.8418 33.144Z" fill="white"/>
<path d="M2.63522 36.2651C2.49769 36.2878 2.43408 36.2318 2.37305 36.1094C2.49081 36.1532 2.59482 36.1525 2.63522 36.2651Z" fill="white"/>
<path d="M2.15132 34.376C2.00175 34.3926 1.95104 34.2996 1.87109 34.187C2.02754 34.2157 2.07568 34.311 2.15132 34.376Z" fill="white"/>
<path d="M2.16092 31.7117C2.08355 31.6656 2.00705 31.6187 1.92969 31.5726C1.93828 31.5605 1.94774 31.5492 1.95633 31.5371C2.05433 31.556 2.1463 31.584 2.19788 31.6701C2.18584 31.6838 2.17381 31.6981 2.16092 31.7117Z" fill="white"/>
<path d="M2.47825 34.5845C2.37252 34.5755 2.30634 34.5316 2.27539 34.4175C2.40777 34.4371 2.44817 34.5059 2.47825 34.5845Z" fill="white"/>
<path d="M2.54102 30.2362C2.64503 30.2922 2.7731 30.3179 2.82984 30.4282C2.72067 30.3799 2.57884 30.3678 2.54703 30.231L2.54102 30.2355V30.2362Z" fill="white"/>
<path d="M2.9792 37.0748C2.90184 37.0302 2.82448 36.9849 2.71875 36.9237C2.81445 36.9126 2.9113 36.9534 3.00929 37.0461C2.99898 37.0559 2.98866 37.065 2.9792 37.0748Z" fill="white"/>
<path d="M5.3813 34.6476C5.24548 34.6551 5.19133 34.6279 5.18359 34.5334C5.29534 34.4987 5.32113 34.5644 5.3813 34.6476Z" fill="white"/>
<path d="M3.2399 32.8101C3.11783 32.8683 3.08345 32.8048 3.0293 32.7353C3.12643 32.7118 3.18058 32.7353 3.2399 32.8101Z" fill="white"/>
<path d="M3.41655 37.805C3.26956 37.7884 3.24635 37.7778 3.14062 37.6811C3.29707 37.6274 3.32028 37.7748 3.41139 37.8088L3.41741 37.805H3.41655Z" fill="white"/>
<path d="M5.47243 36.8398C5.39163 36.895 5.3349 36.892 5.31083 36.8262C5.30739 36.8164 5.33661 36.7861 5.34091 36.7877C5.38561 36.802 5.42945 36.8217 5.47243 36.8398Z" fill="white"/>
<path d="M2.547 30.2317C2.49628 30.218 2.44643 30.2037 2.36133 30.1803C2.49628 30.1228 2.51519 30.1848 2.54012 30.2362L2.54614 30.2309L2.547 30.2317Z" fill="white"/>
<path d="M1.8016 33.097C1.76291 33.0675 1.73111 33.0433 1.66406 32.9927C1.77409 33.001 1.8291 33.0017 1.8016 33.097Z" fill="white"/>
<path d="M2.29644 34.9839C2.25776 34.9695 2.21994 34.9559 2.16406 34.9355C2.27581 34.8773 2.26635 34.9552 2.29042 34.9884L2.29644 34.9839Z" fill="white"/>
<path d="M4.28264 37.204C4.26029 37.2252 4.2431 37.2486 4.23622 37.2464C4.21559 37.2396 4.19754 37.2252 4.18379 37.2093C4.18121 37.2063 4.20528 37.1746 4.21559 37.1753C4.23622 37.1768 4.25513 37.1912 4.28264 37.204Z" fill="white"/>
<path d="M4.62981 37.3867C4.55932 37.4083 4.50173 37.3932 4.45703 37.3413C4.52838 37.361 4.57823 37.3753 4.62895 37.3882C4.62895 37.3874 4.62895 37.3859 4.62895 37.3859L4.62981 37.3867Z" fill="white"/>
<path d="M27.2381 2.90196C27.4556 2.86265 27.6412 2.9322 27.8252 2.98964C28.9461 3.34038 30.0395 3.74932 31.1234 4.17868C31.6615 4.39184 32.1979 4.61483 32.6707 4.93231C32.8606 5.06006 33.0326 5.20973 33.2002 5.36015C33.275 5.42743 33.3308 5.51662 33.3729 5.60431C33.4856 5.83561 33.3979 6.04802 33.1297 6.13948C32.9672 6.19466 32.7833 6.22566 32.6088 6.2249C31.8532 6.22263 31.0993 6.19844 30.3472 6.11832C29.1997 5.99662 28.0641 5.81823 26.9346 5.61035C24.7685 5.21124 22.6281 4.72217 20.5187 4.13257C18.8545 3.66769 17.2127 3.14838 15.6148 2.52779C14.9804 2.28137 14.358 2.01227 13.7752 1.67589C13.5818 1.56402 13.3721 1.47558 13.1985 1.33422C13.005 1.17624 12.9818 0.99709 13.1735 0.835328C13.2552 0.766541 13.3609 0.705313 13.4675 0.675833C13.6893 0.61536 13.9171 0.560936 14.1474 0.535991C14.8265 0.461913 15.5056 0.513314 16.1838 0.566983C16.3342 0.579077 16.4847 0.592683 16.6351 0.607046C16.7357 0.616116 16.7357 0.616872 16.8293 0.689439C16.7907 0.773344 16.7081 0.746887 16.6377 0.74462C16.2328 0.732525 15.8279 0.712116 15.4231 0.70758C14.9133 0.702289 14.4062 0.737061 13.9068 0.830792C13.7735 0.855737 13.6411 0.894288 13.5174 0.943421C13.4649 0.963831 13.3919 1.05227 13.403 1.0689C13.4426 1.12559 13.5113 1.17019 13.5775 1.20496C13.605 1.21933 13.6583 1.20496 13.697 1.19362C14.0555 1.08931 14.4259 1.08251 14.7973 1.08251C15.6655 1.08251 16.5268 1.16414 17.3821 1.28055C18.4342 1.42342 19.482 1.59047 20.5299 1.75375C20.8737 1.80742 21.2124 1.88679 21.5554 1.94575C21.7703 1.98278 21.9817 2.02512 22.1949 2.07123C22.3874 2.1128 22.5869 2.12338 22.7725 2.19822C22.8413 2.22618 22.9324 2.2088 23.0124 2.21863C23.0622 2.22467 23.1121 2.23979 23.1593 2.25718C23.1963 2.27078 23.2264 2.30253 23.2642 2.31085C23.5556 2.3751 23.8479 2.43481 24.1393 2.4968C24.1848 2.50662 24.2304 2.51721 24.2751 2.53157C24.3456 2.55349 24.4143 2.58297 24.4857 2.60187C25.6135 2.90876 26.7498 3.19449 27.8673 3.52633C29.0853 3.88765 30.2759 4.31625 31.4019 4.86655C31.665 4.99505 31.9125 5.15076 32.1506 5.31328C32.3457 5.44632 32.5065 5.61489 32.6148 5.81596C32.6784 5.93312 32.7876 5.95278 32.938 5.88172C33.0515 5.82881 33.0712 5.75397 32.9732 5.64059C32.8873 5.54081 32.7859 5.44708 32.6767 5.3662C31.9469 4.82724 31.1363 4.39638 30.2922 4.01162C29.51 3.65484 28.6865 3.38196 27.8587 3.11966C27.6842 3.06448 27.5097 3.01005 27.3361 2.95261C27.3 2.94051 27.269 2.91935 27.2355 2.90272L27.2381 2.90196ZM22.3634 4.30794C22.5972 4.45609 22.6969 4.44929 22.8585 4.2845C22.9823 4.15751 23.0992 4.02296 23.2358 3.90806C23.3545 3.80904 23.4894 3.72892 23.5814 3.60344C23.6347 3.53087 23.7232 3.46964 23.81 3.42504C24.0121 3.323 24.1384 3.15972 24.2768 3.00552C24.3035 2.97604 24.312 2.93371 24.3292 2.89818C24.0533 2.78253 24.0241 2.7916 23.8556 2.98738C23.7946 3.05843 23.7146 3.11664 23.6399 3.17862C23.5754 3.23229 23.4972 3.27538 23.4421 3.33585C23.3433 3.44545 23.241 3.54599 23.0897 3.60268C23.0519 3.61704 23.0287 3.66466 23.0003 3.69792C22.9307 3.7788 22.8705 3.86725 22.7914 3.93981C22.6548 4.0668 22.5069 4.18472 22.3616 4.30794H22.3634ZM21.2958 4.04715C21.5107 4.14693 21.6258 4.12198 21.747 3.97534C21.8012 3.90958 21.8777 3.85742 21.9456 3.80073C21.9903 3.76369 22.0427 3.73345 22.084 3.6949C22.1657 3.6178 22.2336 3.52633 22.3238 3.4583C22.433 3.37667 22.5465 3.30259 22.6118 3.18542C22.6255 3.16048 22.6573 3.13705 22.6866 3.12495C22.9367 3.0229 23.0063 2.77346 23.235 2.64722C23.0141 2.53081 22.8628 2.51343 22.7828 2.61472C22.6711 2.75683 22.537 2.86946 22.3788 2.96772C22.3032 3.01535 22.2327 3.07204 22.1708 3.13327C21.9594 3.34189 21.7574 3.55808 21.5425 3.76293C21.4513 3.84986 21.3276 3.90958 21.2949 4.04791L21.2958 4.04715ZM22.7828 3.61175C22.8542 3.59361 22.9358 3.59361 22.9771 3.55808C23.155 3.40237 23.3356 3.24514 23.4868 3.06977C23.5719 2.97075 23.7224 2.9012 23.725 2.7538C23.535 2.66612 23.4189 2.69711 23.296 2.81806C23.1525 2.95714 23.0536 3.13705 22.8387 3.21793C22.7923 3.23531 22.7725 3.30486 22.7338 3.34492C22.6917 3.38876 22.6479 3.4515 22.5946 3.46133C22.4846 3.48098 22.433 3.54296 22.3831 3.61629C22.3591 3.65181 22.335 3.68885 22.3023 3.71833C22.1657 3.8423 22.0247 3.96173 21.8889 4.08721C21.8596 4.11367 21.8493 4.15676 21.8261 4.2006C21.8786 4.2195 21.9147 4.23537 21.9533 4.24595C22.1717 4.30642 22.1906 4.30113 22.2834 4.1235C22.3247 4.04488 22.3694 3.9761 22.4631 3.93679C22.6247 3.86876 22.7321 3.75688 22.7828 3.61326V3.61175ZM22.9083 4.48104C23.0141 4.50901 23.0957 4.53697 23.18 4.55134C23.2144 4.55738 23.2668 4.54378 23.29 4.52186C23.4284 4.38957 23.584 4.27316 23.7301 4.14995C23.8926 4.01313 24.0172 3.84154 24.1934 3.70775C24.4186 3.53692 24.6181 3.34038 24.8278 3.15292C24.8579 3.12571 24.8802 3.09094 24.906 3.05919C24.6559 2.92842 24.5699 2.92313 24.4461 3.06448C24.2433 3.29503 23.9931 3.48552 23.7688 3.69717C23.5109 3.94057 23.2728 4.20589 22.9642 4.40696C22.9487 4.41679 22.9419 4.43568 22.9083 4.48179V4.48104ZM23.5272 4.60349C23.645 4.6685 23.755 4.72368 23.8393 4.66019C24.0353 4.51354 24.2149 4.34875 24.3954 4.18548C24.5673 4.03052 24.7152 3.85288 24.9026 3.71531C25.09 3.57774 25.2241 3.40463 25.3865 3.25194C25.402 3.23758 25.4003 3.20886 25.4072 3.18164C25.3702 3.16501 25.3418 3.14838 25.31 3.13856C25.1123 3.07506 25.108 3.08413 24.9808 3.23909C24.8974 3.34038 24.7934 3.42958 24.6894 3.51575C24.5476 3.63367 24.3653 3.71833 24.2966 3.89597C24.2863 3.92167 24.2527 3.94208 24.2278 3.96173C24.1135 4.05471 23.9931 4.14164 23.8857 4.2399C23.7645 4.35102 23.6553 4.47197 23.5272 4.60274V4.60349ZM20.7267 3.89899C20.878 3.98063 20.9992 3.99121 21.1066 3.89143C21.2983 3.71304 21.496 3.53843 21.6697 3.34794C21.7745 3.23304 21.888 3.14082 22.029 3.06448C22.1442 3.0025 22.2551 2.9269 22.3462 2.83998C22.4227 2.7659 22.4691 2.67065 22.58 2.61925C22.6161 2.60262 22.6255 2.54215 22.647 2.50284C22.4407 2.40155 22.3402 2.3887 22.2662 2.49075C22.1957 2.58826 22.0883 2.64269 22.0066 2.72281C21.741 2.98662 21.3826 3.16426 21.1445 3.45301C20.9373 3.54901 20.8754 3.74555 20.7259 3.89975L20.7267 3.89899ZM20.1835 3.73874C20.3614 3.82794 20.4155 3.8234 20.5608 3.71002C20.7654 3.55052 20.9536 3.37742 21.1316 3.19525C21.2287 3.09623 21.3422 3.00023 21.4703 2.93749C21.5588 2.89365 21.6241 2.84905 21.674 2.77497C21.6972 2.74095 21.7384 2.71676 21.772 2.68728C21.8811 2.59128 21.9817 2.49075 22.0041 2.35091C21.7986 2.27003 21.7857 2.26322 21.6576 2.37132C21.5107 2.49453 21.3817 2.63362 21.2407 2.76212C21.1952 2.80369 21.1436 2.84829 21.0843 2.8687C20.9743 2.9065 20.8935 2.95563 20.8642 3.06372C20.8548 3.10076 20.817 3.13553 20.7843 3.1635C20.6218 3.30108 20.4542 3.43336 20.2952 3.57396C20.2453 3.61855 20.2204 3.68356 20.1835 3.7395V3.73874ZM20.9236 2.1128C20.8324 2.08634 20.7766 2.06896 20.7198 2.05308C20.6124 2.0236 20.5436 2.04704 20.4559 2.12565C20.2041 2.35242 19.9943 2.6185 19.6797 2.78933C19.6479 2.80672 19.6325 2.84602 19.6075 2.87399C19.5336 2.95865 19.4666 3.05012 19.3806 3.12495C19.2989 3.19525 19.1975 3.24892 19.1038 3.30788C19.0497 3.34189 19.0368 3.38649 19.0737 3.43185C19.1554 3.53389 19.3746 3.52558 19.4511 3.42051C19.4769 3.38498 19.4949 3.33812 19.5319 3.31846C19.6978 3.23002 19.8147 3.09774 19.9479 2.97906C20.1714 2.77875 20.4044 2.58675 20.6313 2.38946C20.7224 2.30933 20.8067 2.22392 20.9236 2.1128ZM25.6977 3.26555C25.5971 3.35928 25.512 3.44621 25.4183 3.52407C25.1519 3.74479 24.8794 3.95947 24.6146 4.18246C24.5269 4.25653 24.4779 4.38126 24.3791 4.42359C24.2098 4.49615 24.2003 4.64356 24.0937 4.7456C24.3593 4.84538 24.3628 4.8484 24.5312 4.69042C24.6095 4.6171 24.6585 4.51203 24.7487 4.45685C24.9155 4.35556 25.0255 4.21345 25.1613 4.09024C25.3822 3.89068 25.6264 3.71229 25.8318 3.49837C25.8739 3.45528 25.9779 3.4326 25.941 3.36684C25.9143 3.31997 25.8249 3.29881 25.7622 3.26933C25.7458 3.26177 25.7218 3.2663 25.6977 3.26555ZM26.5281 3.5286C26.3561 3.42656 26.1619 3.4137 26.094 3.52255C25.9968 3.67903 25.8189 3.75462 25.7063 3.88765C25.5825 4.03354 25.4201 4.13937 25.2696 4.25805C25.1914 4.32003 25.1338 4.40091 25.059 4.46743C24.9138 4.59593 24.7633 4.7199 24.588 4.86881C24.7315 4.90207 24.8536 4.97766 24.949 4.92475C25.1072 4.83707 25.2378 4.71159 25.3745 4.59593C25.4329 4.5468 25.4699 4.47953 25.5266 4.42812C25.7372 4.23839 25.953 4.05244 26.1645 3.86347C26.2865 3.75386 26.4051 3.64199 26.5272 3.5286H26.5281ZM19.6041 3.58152C19.8396 3.71229 19.8826 3.68734 20.0545 3.52029C20.137 3.44016 20.2135 3.35474 20.3012 3.27915C20.5333 3.07809 20.7731 2.88306 21.0044 2.68124C21.1642 2.5414 21.3155 2.39324 21.4754 2.24433C21.2089 2.12111 21.1677 2.13094 20.9949 2.31387C20.8986 2.41516 20.7963 2.51418 20.6837 2.60111C20.4138 2.80898 20.1233 2.99645 19.9092 3.25572C19.8181 3.36608 19.7124 3.46737 19.6041 3.58076V3.58152ZM25.849 5.11524C26.0097 5.1742 26.1481 5.2188 26.2642 5.07517C26.2822 5.0525 26.3226 5.04494 26.3484 5.02604C26.4421 4.95801 26.5195 4.88393 26.59 4.79171C26.6974 4.6496 26.8478 4.52488 27.0051 4.42359C27.0902 4.36916 27.1607 4.31474 27.2209 4.24142C27.2553 4.19833 27.3077 4.16734 27.3447 4.12501C27.4255 4.0343 27.5475 3.96098 27.5321 3.82643C27.3309 3.72967 27.3146 3.72136 27.1917 3.8491C26.9991 4.04866 26.7249 4.18094 26.5839 4.42283C26.5693 4.44778 26.5367 4.46592 26.5109 4.48482C26.3922 4.57326 26.2659 4.65414 26.1576 4.75089C26.0407 4.85521 25.8954 4.94592 25.8481 5.11524H25.849ZM18.4617 3.23758C18.5116 3.26404 18.5434 3.2852 18.5786 3.29805C18.8012 3.37893 18.8253 3.3744 18.9826 3.21793C19.1047 3.09623 19.2207 2.96999 19.3454 2.85056C19.4047 2.79387 19.4838 2.7538 19.5465 2.70013C19.7631 2.51343 19.9789 2.32596 20.1903 2.13548C20.229 2.10071 20.2488 2.0493 20.2866 1.99186C20.2118 1.96767 20.1637 1.94726 20.1121 1.93668C19.9325 1.90039 19.8903 1.92307 19.8027 2.06669C19.7751 2.11204 19.7279 2.14833 19.6875 2.18612C19.6368 2.23374 19.5757 2.27381 19.5336 2.32596C19.482 2.39022 19.4262 2.44086 19.3514 2.48924C19.2276 2.56861 19.1279 2.67746 19.0204 2.77572C18.9448 2.84527 18.8777 2.92161 18.7978 2.98738C18.6946 3.07204 18.5829 3.14838 18.4608 3.23758H18.4617ZM26.4017 5.21199C26.5461 5.26264 26.6596 5.31858 26.7679 5.25432C26.9028 5.17495 27.0455 5.08954 27.1418 4.97766C27.2579 4.84311 27.3653 4.70554 27.514 4.5982C27.6515 4.49767 27.7513 4.36312 27.9111 4.27846C27.9894 4.23688 28.0349 4.14391 28.0856 4.06983C28.0968 4.0532 28.0796 4.00935 28.0598 3.99046C27.9971 3.92999 27.8707 3.92167 27.7994 3.9761C27.6679 4.07739 27.5217 4.17112 27.4195 4.29206C27.306 4.42661 27.0937 4.47423 27.0326 4.6496C27.0292 4.65867 27.0112 4.66396 27 4.67001C26.7473 4.79322 26.6054 5.0079 26.4026 5.21124L26.4017 5.21199ZM25.2284 4.98522C25.3616 5.03738 25.4656 5.09332 25.5817 5.02982C25.6616 4.98598 25.7441 4.9376 25.8052 4.87562C25.9607 4.71688 26.1034 4.54907 26.253 4.38655C26.2865 4.35027 26.3261 4.31776 26.3656 4.28601C26.5616 4.13105 26.761 3.97836 26.9553 3.82189C27.0026 3.7841 27.0369 3.73421 27.0954 3.67071C26.9931 3.6367 26.9261 3.60873 26.8547 3.5921C26.7584 3.56942 26.6854 3.58832 26.6424 3.68356C26.6157 3.74177 26.5599 3.79317 26.5083 3.83928C26.3261 4.00331 26.1395 4.16431 25.9539 4.32457C25.7493 4.50145 25.5421 4.6753 25.3384 4.85294C25.2989 4.88771 25.2705 4.93231 25.2275 4.98447L25.2284 4.98522ZM19.6522 1.87847C19.4391 1.79683 19.4115 1.79608 19.2835 1.90568C19.1434 2.02587 18.9663 2.11885 18.8967 2.29422C18.8881 2.31463 18.8623 2.33277 18.8399 2.34486C18.6276 2.45825 18.4565 2.61094 18.3018 2.77875C18.2726 2.8105 18.2356 2.83922 18.1952 2.85812C18.0895 2.90801 18.0345 2.99267 17.9692 3.07355C18.221 3.21339 18.2288 3.21793 18.4161 3.05692C18.5709 2.92388 18.7101 2.77648 18.8597 2.63891C18.9336 2.57088 19.0196 2.51343 19.0969 2.44842C19.1648 2.39097 19.2276 2.32899 19.2921 2.26852C19.4176 2.14833 19.5852 2.05762 19.6539 1.87923L19.6522 1.87847ZM19.1047 1.78625C18.833 1.66984 18.7935 1.6774 18.6414 1.84823C18.613 1.87998 18.5683 1.90039 18.5348 1.92912C18.4772 1.97825 18.4222 2.03041 18.3654 2.08105C18.3285 2.11431 18.2889 2.1453 18.2545 2.18008C18.1385 2.29875 17.9485 2.34184 17.8746 2.51267C17.8333 2.6064 17.7345 2.69711 17.6047 2.74247C17.5325 2.76817 17.4646 2.81881 17.4697 2.90347C17.6623 3.02215 17.7586 3.03198 17.8712 2.92388C18.0439 2.75758 18.221 2.59355 18.3947 2.42877C18.5614 2.27154 18.7256 2.1128 18.9027 1.96389C18.9697 1.90795 19.0333 1.84823 19.1038 1.78549L19.1047 1.78625ZM16.9514 2.71601C17.1474 2.86114 17.199 2.85812 17.3425 2.71072C17.4139 2.63815 17.4826 2.55954 17.5686 2.50284C17.7388 2.39097 17.8987 2.27229 18.0319 2.12641C18.074 2.0803 18.129 2.04326 18.1755 1.99941C18.2786 1.90039 18.4118 1.82178 18.4694 1.68874C18.2657 1.58745 18.2296 1.58594 18.0775 1.69857C17.9279 1.80893 17.7783 1.92005 17.6399 2.04175C17.4869 2.1763 17.3477 2.32294 17.2033 2.46505C17.119 2.5482 17.0356 2.6321 16.9514 2.71525V2.71601ZM27.5733 5.38963C27.8974 5.55668 28.0169 5.53476 28.1639 5.31328C28.1742 5.29817 28.1828 5.28078 28.1965 5.26793C28.402 5.08803 28.6108 4.91039 28.8137 4.72746C28.9358 4.61785 29.0484 4.50069 29.1661 4.38579C28.9452 4.24217 28.8893 4.24898 28.7269 4.40923C28.5515 4.58233 28.3839 4.7645 28.1853 4.91568C28.0985 4.98144 28.0392 5.06308 27.9541 5.12582C27.8372 5.21124 27.7152 5.29136 27.5733 5.38963ZM27.1057 5.33823C27.3318 5.41457 27.3515 5.40853 27.4564 5.31177C27.569 5.20821 27.6902 5.11221 27.8063 5.01092C27.8596 4.96406 27.9103 4.91492 27.9567 4.86352C28.0409 4.7713 28.1123 4.6685 28.206 4.58611C28.3014 4.50145 28.4234 4.44022 28.524 4.35934C28.5747 4.31852 28.6048 4.2588 28.6435 4.2074C28.4467 4.08646 28.4441 4.08419 28.298 4.19833C28.1415 4.32003 27.9868 4.44475 27.8389 4.57477C27.6653 4.7267 27.5131 4.89905 27.3266 5.03738C27.214 5.12128 27.1513 5.21275 27.1048 5.33823H27.1057ZM29.6853 4.55663C29.6105 4.52412 29.5289 4.43417 29.4292 4.4954C29.3243 4.56041 29.1687 4.5793 29.1292 4.72217C29.1163 4.76677 29.0484 4.80003 29.0037 4.83707C28.9151 4.91114 28.824 4.98295 28.7355 5.05628C28.6865 5.0971 28.6375 5.13716 28.5937 5.18176C28.4845 5.29212 28.3788 5.4055 28.2687 5.52116C28.5189 5.62018 28.5902 5.60884 28.7398 5.46371C28.8808 5.32765 29.0217 5.19234 29.1653 5.05854C29.2667 4.96406 29.375 4.87637 29.4756 4.78113C29.5461 4.71461 29.6071 4.64129 29.687 4.55512L29.6853 4.55663ZM28.8361 5.61413C28.916 5.63908 28.9461 5.65344 28.9779 5.65797C29.1051 5.67612 29.2418 5.71845 29.2994 5.55744C29.3071 5.53703 29.3535 5.5272 29.3819 5.51284C29.4223 5.49243 29.4782 5.48109 29.5005 5.4501C29.6423 5.25659 29.8203 5.09861 30.0386 4.97237C30.1134 4.92929 30.1667 4.85521 30.2509 4.77508C30.116 4.72217 30.0128 4.68211 29.9217 4.64733C29.5581 4.97086 29.2108 5.28002 28.8352 5.61489L28.8361 5.61413ZM16.4339 2.55273C16.5921 2.62782 16.7208 2.62077 16.8199 2.53157C16.9093 2.45144 16.9987 2.37283 17.0872 2.29195C17.1104 2.27078 17.1293 2.24508 17.1526 2.22241C17.2058 2.17025 17.2523 2.10978 17.3159 2.06896C17.5213 1.93592 17.6657 1.75753 17.8196 1.57611C17.6408 1.48994 17.4947 1.51413 17.3709 1.63885C17.2763 1.73334 17.1869 1.8316 17.0932 1.92685C17.0271 1.99412 16.9626 2.06367 16.8887 2.12414C16.7846 2.20956 16.666 2.28212 16.5655 2.36981C16.5122 2.41667 16.4821 2.48395 16.4357 2.55198L16.4339 2.55273ZM17.2084 1.51186C16.9291 1.40754 16.8285 1.42191 16.6686 1.59425C16.4761 1.80288 16.3041 2.02663 16.0497 2.18688C15.993 2.22241 15.9577 2.28439 15.913 2.33352C16.2036 2.54064 16.2775 2.4401 16.3944 2.27456C16.452 2.19293 16.5182 2.13321 16.6136 2.0939C16.6437 2.08105 16.6781 2.0682 16.6987 2.04628C16.8654 1.87394 17.0296 1.70008 17.2076 1.51186H17.2084ZM29.4816 5.6935C29.6449 5.7449 29.7893 5.79782 29.9062 5.73205C30.0326 5.661 30.1357 5.54988 30.2286 5.44254C30.3515 5.29968 30.4306 5.12506 30.6395 5.05174C30.6592 5.04494 30.6678 5.01395 30.6807 4.9958C30.4512 4.79549 30.3266 4.84538 30.1908 5.00563C30.1822 5.01546 30.1744 5.02529 30.165 5.0336C29.9922 5.20141 29.8186 5.36998 29.6449 5.53779C29.5968 5.5839 29.5486 5.63001 29.4816 5.6935ZM16.5612 1.43778C16.3016 1.34934 16.1907 1.36446 16.0746 1.48465C15.8984 1.66757 15.7188 1.84823 15.5322 2.0236C15.4807 2.07274 15.4299 2.10902 15.4875 2.17252C15.5511 2.24281 15.6792 2.25869 15.7403 2.20578C15.8331 2.12641 15.9345 2.05157 16.0093 1.96011C16.1039 1.84521 16.2225 1.76584 16.3549 1.6895C16.4528 1.6328 16.5508 1.55797 16.5603 1.43702L16.5612 1.43778ZM31.1698 5.16891C31.0486 5.13413 30.9498 5.07366 30.8922 5.09558C30.7813 5.13943 30.6489 5.18402 30.6016 5.30724C30.5518 5.43952 30.4314 5.52191 30.318 5.60884C30.2552 5.65722 30.1959 5.70938 30.1186 5.77438C30.3438 5.84695 30.5165 5.86736 30.667 5.70484C30.7822 5.58087 30.918 5.47127 31.0392 5.35108C31.0822 5.30875 31.1097 5.25432 31.1698 5.16815V5.16891ZM14.9426 1.93214C14.9658 1.95104 14.9787 1.96691 14.9958 1.97523C15.1617 2.05762 15.1841 2.05686 15.3208 1.93214C15.4566 1.80742 15.5872 1.6774 15.7188 1.54965C15.7703 1.49976 15.8202 1.44836 15.8838 1.38487C15.6878 1.33498 15.5339 1.32062 15.4067 1.45517C15.258 1.61239 15.1042 1.7666 14.9426 1.9329V1.93214ZM30.7813 5.8666C30.9257 5.87567 31.0203 5.8855 31.114 5.88474C31.1492 5.88474 31.1913 5.86434 31.2188 5.84166C31.3306 5.74944 31.4423 5.65571 31.5455 5.55517C31.5747 5.52645 31.5962 5.46522 31.5816 5.43196C31.5386 5.33521 31.383 5.30799 31.2928 5.37829C31.1587 5.48109 31.028 5.58768 30.9016 5.69728C30.8612 5.73281 30.8389 5.78497 30.7822 5.8666H30.7813ZM15.191 1.36219C14.787 1.28887 14.7002 1.33876 14.5205 1.7288C14.6847 1.84899 14.7311 1.85126 14.8497 1.71746C14.9408 1.61466 15.0105 1.49598 15.1557 1.43778C15.1721 1.43098 15.1755 1.39772 15.191 1.36219ZM31.4535 5.91574C31.5584 5.92405 31.6521 5.93463 31.7466 5.93766C31.9649 5.94522 31.977 5.9369 32.0836 5.71845C31.9933 5.65949 31.8979 5.5975 31.7655 5.51133C31.7397 5.71316 31.4492 5.68745 31.4535 5.91574ZM13.9755 1.43551C14.2162 1.64565 14.3151 1.62524 14.4088 1.36899C14.2686 1.39016 14.1423 1.40981 13.9755 1.43551ZM32.2503 5.89004C32.2151 5.86887 32.1953 5.84771 32.1773 5.84922C32.1584 5.85073 32.1429 5.87492 32.1257 5.88928C32.1429 5.90364 32.1584 5.92708 32.1773 5.92934C32.1945 5.93161 32.2151 5.91045 32.2503 5.89004Z" fill="white"/>
</g>
<defs>
<clipPath id="clip0_351_927">
<rect width="40" height="40" fill="white"/>
</clipPath>
</defs>
</svg>
